<?xml version="1.0" encoding="utf-8"?>
<!-- Generator: Adobe Illustrator 19.0.0, SVG Export Plug-In . SVG Version: 6.00 Build 0)  -->
<svg version="1.1" id="Layer_1" xmlns="http://www.w3.org/2000/svg" xmlns:xlink="http://www.w3.org/1999/xlink" x="0px" y="0px"
	 viewBox="-50 142 510 510" style="enable-background:new -50 142 510 510;" xml:space="preserve">
<style type="text/css">
	.st0{display:none;}
	.st1{display:none;opacity:0.6784;}
	.st2{display:none;opacity:0.3882;}
	.st3{display:none;opacity:0.6392;}
	.st4{enable-background:new    ;}
	.st5{fill:none;stroke:#000000;stroke-miterlimit:10;}
	.st6{display:inline;}
	.st7{display:inline;opacity:0.8314;}
	.st8{display:inline;opacity:0.4196;}
</style>
<g id="_x3C_Background_x3E__xA0_0_xA0_Image_1_" class="st0">
</g>
<g id="Layer_1_xA0_Image_1_" class="st0">
</g>
<g id="Image_xA0_2_xA0_Image_1_" class="st1">
</g>
<g id="Image_xA0_3_xA0_Image_1_" class="st0">
</g>
<g id="Image_xA0_4_xA0_Image_1_" class="st0">
</g>
<g id="Image_xA0_5_xA0_Image_1_" class="st2">
</g>
<g id="Image_xA0_6_xA0_Image_1_" class="st0">
</g>
<g id="Image_xA0_7_xA0_Image_1_" class="st3">
</g>
<g id="grid_1_" class="st4">
	<g id="grid">
		<g>
			<polygon class="st5" points="350.8,430.5 350.7,429.5 221.3,440.7 219.8,427.5 381.3,413.3 381.1,412.3 219.7,426.5 216.5,398 
				359,387.5 359,386.5 216.4,397 207.9,320.3 205.8,320.5 214.3,397.2 75,407.5 75,408.5 214.4,398.2 217.6,426.7 23.7,443.7 
				23.9,444.7 217.7,427.7 219.2,440.9 50.2,455.5 50.3,456.5 219.3,441.9 229.1,530.9 145,538.5 145,539.5 229.2,531.9 
				233.4,569.4 235.5,569.2 231.3,531.7 311,524.5 311,523.5 231.2,530.7 221.4,441.7 			"/>
		</g>
	</g>
</g>
<g id="Image_xA0_19_1_" class="st0">
	<g id="Image_xA0_10_xA0_Image_1_" class="st6">
	</g>
	<g id="Image_xA0_11_xA0_Image_1_" class="st6">
	</g>
	<g id="Image_xA0_12_xA0_Image_1_" class="st6">
	</g>
	<g id="Layer_2_copy_xA0_Image_1_" class="st7">
	</g>
	<g id="bonetonemerged_xA0_Image_1_" class="st6">
	</g>
	<g id="lines1_xA0_Image_1_" class="st6">
	</g>
	<g id="lines2_xA0_Image_1_" class="st6">
	</g>
</g>
<g id="Layer_54">
	<g id="Layer_55">
		<g>
			<g>
				<path class="st5" d="M234.4,561.1c-5.8,0.9-11.3,0-17.1-0.6c-2.6-0.3-5.1-0.5-7.7-0.7c-3-0.2-6.2,0-9.2-0.6
					c-5.4-0.9-11-2-15.9-4.5c-4.7-2.3-9.3-5-13.8-7.6c-9.3-5.5-18.4-11.5-27.4-17.4c-2.2-1.4-4.4-2.9-6.6-4.3
					c-2.3-1.5-5.1-2.8-7.1-4.7c-1.2-1.1-2-2.5-3.1-3.7c-1.3-1.3-2.6-2.5-4-3.7c-2.7-2.3-5.5-4.7-7.3-7.8c-1-1.7-1.6-3.6-1.7-5.5
					c-0.1-2.2,0.6-3.2,1.9-4.9c0.7-1,1.5-2.1,1.6-3.3c0.1-1.5-0.9-2.3-1.8-3.5c-2.1-2.6-3.6-4.9-6.6-6.4c-2.1-1-3.2-3.5-4.5-5.5
					c-1.3-1.9-2.7-3.7-4.1-5.5c-2.9-3.8-5.9-6.4-10.2-8.4c-8.4-3.8-19.9-5.5-22.1-16.3c-1.2-6,2.8-10.2,5.9-14.8
					c2.9-4.3,5.1-8.8,7.6-13.3c1.1-1.9,3-3.1,4-5.1c0.9-1.6,1.7-3.3,2.6-4.9c1.7-3.1,3.8-6.7,7-8.3c4.9-2.5,8.9,1,10.6,5.5
					c1.7,4.5,1.1,9.6,1.4,14.3c0.3,5.2,0.2,10.6,0.8,15.8c0.3,3,1.6,5.9,3.4,8.2c3.9,4.9,10.2,7.4,16.1,8.7c3.2,0.7,6.4,1.2,9.7,1.6
					c3.5,0.4,7.1,0.9,10.6,0.6c7.8-0.7,15-5.4,19.5-11.7c1.3-1.9,2-3.8,3-5.8c0.9-1.9,2.2-3.9,2.7-6c0.4-1.5,0.5-2.9,1-4.4
					c0.4-1.2,0.8-2.4,1-3.7c0.3-2.1,0.4-4.3,0.6-6.4c0.8-9.2,0.8-18.5-0.7-27.6c-0.7-4.4-1.9-8.8-3.5-12.9c-0.8-2-1.7-3.9-2.7-5.7
					c-1.2-2.1-1.9-2.9-4.1-4c-4.2-2.1-8.7-3.5-13.3-4.2c-4.3-0.7-9.3-1.4-13.6-0.2c-1.9,0.5-3.4,1.5-4.9,2.7c-2,1.5-3.9,2.8-6.1,4
					c-4,2.2-8.2,4.2-11.5,7.6c-1.3,1.4-2.5,3-3.5,4.6c-0.5,0.9-1,1.9-1.5,2.8c-0.4,0.8-0.7,1.4-1.4,2c-0.2,0.2-0.4,0.4-0.7,0.7
					c-2.5-0.1-3.6-1-3.3-2.5c-0.2,0.2-0.4,0.3-0.6,0.5c0.8,0.1,0.8,0.5,0.7,1.3c0.3,0,0.6-0.1,0.9-0.1c-1.6-3.3,1.2-4.4,2.8-6.5
					c1.3-1.7,2.1-3.7,3.2-5.5c1.3-2.1,2.9-3.9,4.5-5.8c1.4-1.7,2.6-3.5,4.1-5.1c1.5-1.6,3.3-2.6,5-3.8c1.6-1.2,3.1-2.6,4.5-4
					c3.4-3.5,6.9-6.3,11-9c7.2-4.9,13.9-10.6,21.8-14.4c4.6-2.2,9.2-2.9,14.1-3.8c4.9-0.9,9.7-1.9,14.7-2.7
					c19.9-3.2,39.5,0.4,58.4,6.9c17.4,6,31.7,17.2,44.2,30.4c5.7,6,15.8,14.6,10.1,23.7c-3.9,6.2-12.2,5.4-18.4,4.1
					c-3.3-0.7-6.6-1.7-9.8-2.6c-3-0.8-5.6-1.7-8.4,0c-5.6,3.4-5.1,11.7-5.1,17.4c0.1,13,3.5,26.7,11.9,36.9
					c7.2,8.8,22.7,17.9,31.8,6.6c2-2.5,3.3-5.6,3.7-8.8c0.4-3.3-0.5-6.5-1.4-9.6c-1.9-6.6-6.2-15.4-2.3-22.1
					c5.4-9.2,17.3-4.6,22.9,1.8c5.6,6.4,9,14.8,9,23.4c0,4.3-0.9,8.5-2.5,12.5c-0.2,0.6,0.7,0.9,1,0.3c5.6-14.2,1.1-33.8-12.8-41.6
					c-6.1-3.4-13.6-3.9-18,2.4c-4,5.8-1.5,13.4,0.5,19.5c1.2,3.8,2.9,8,2.8,12c-0.1,4.2-2.1,8.4-5.1,11.3
					c-6.6,6.1-15.6,2.7-22.1-1.9c-12.1-8.6-17.4-24.4-18.3-38.7c-0.2-3.6-0.2-7.3,0.2-11c0.4-4.4,1.7-10.4,7.4-10.4
					c1.7,0,3.7,0.8,5.4,1.3c1.7,0.5,3.4,1,5.2,1.4c3.3,0.9,6.7,1.6,10.1,1.8c5.7,0.4,11.3-1.3,13.9-6.8c3.6-7.6-2.6-14.7-7.5-19.9
					c-6.4-6.7-12.7-13.3-20.1-19c-3.4-2.7-7-5.2-10.8-7.4c-4.1-2.4-8.4-4-12.7-6.1c-8.5-4-18.3-6.5-27.5-8.3
					c-9.6-1.8-19.8-2.5-29.5-1.4c-4.7,0.5-9.4,1.4-14.1,2.3c-5.1,1-10.6,1.4-15.5,2.9c-8.5,2.6-15.8,8.3-22.9,13.4
					c-3.6,2.6-7.5,4.9-10.9,7.7c-3.6,2.9-6.2,6.8-10.2,9.3c-3.7,2.3-5.8,5.4-8.6,8.8c-1.4,1.6-2.7,3.2-3.9,5c-1.3,2-2.2,4.3-3.6,6.2
					c-1,1.3-2.6,2.1-3.2,3.7c-0.5,1.3-0.2,2.7,0.4,3.9c0.2,0.4,0.8,0.3,0.9-0.1c0.4-1.5,0.3-2.2-1.4-2.5c-0.3-0.1-0.6,0.1-0.6,0.5
					c-0.2,2.8,2,5,4.8,3.4c1.5-0.9,2.2-2.6,3-4.1c1.3-2.5,2.8-4.8,4.9-6.8c3.6-3.4,8.2-5.4,12.4-7.8c2-1.2,3.7-2.6,5.6-3.9
					c2.5-1.7,5.2-2.1,8.2-2.1c5.4,0,10.8,0.8,15.8,2.6c2.5,0.8,6.3,1.9,8,4c1.4,1.7,2.4,4.1,3.3,6.1c4,9.1,5.2,19.2,5.3,29
					c0,4.7-0.2,9.4-0.6,14.1c-0.2,2.7-0.4,5.3-1.2,7.9c-0.9,2.7-1.2,5.5-2.5,8.1c-2.2,4.7-4.2,9.1-8.1,12.7
					c-3.4,3.2-7.7,5.5-12.3,6.5c-3.9,0.8-7.9,0.3-11.8-0.1c-3.5-0.4-7.1-0.8-10.5-1.7c-6.7-1.6-14.1-4.5-17.3-11.1
					c-2.2-4.4-1.6-9.6-1.9-14.4c-0.3-5.3-0.3-10.7-0.7-16c-0.5-6-4.5-13.6-11.6-11.6c-6.5,1.9-8.6,9.7-11.8,14.7
					c-1.3,2-3.1,3.2-4.1,5.3c-1.1,2.4-2.3,4.7-3.6,6.9c-1.4,2.3-2.8,4.6-4.4,6.8c-1.5,2.2-3.4,4.3-4.5,6.8
					c-1.5,3.4-1.3,7.2,0.2,10.6c1.7,4.1,4.7,6.7,8.5,8.6c4,2,8.3,3.2,12.4,5c2.1,0.9,4.1,2,5.9,3.3c2.5,1.8,4.2,4.4,6.1,6.8
					c1.4,1.9,2.8,3.8,4.1,5.8c0.6,0.9,1.2,2.6,2,3.2c0.5,0.4,1.1,0.4,1.7,0.6c2.2,0.8,3.5,2.5,4.8,4.3c1.2,1.6,3.4,3.6,2.6,5.6
					c-0.6,1.5-2,2.5-2.7,3.9c-0.7,1.3-0.6,2.8-0.4,4.2c0.4,2.9,1.8,5.5,3.6,7.8c2.3,2.8,5.2,5,7.8,7.4c1.3,1.2,2.5,2.4,3.6,3.8
					c1.4,1.9,3.1,2.8,5.1,4.1c9.1,5.9,18.1,11.9,27.3,17.7c4.7,3,9.5,5.9,14.3,8.6c4.5,2.6,9.1,5.5,14,7.1c2.4,0.8,4.8,1.4,7.3,1.9
					c2.4,0.5,4.9,1.2,7.4,1.3c5.6,0.1,11.2,0.6,16.8,1.2c5,0.6,9.9,1.1,14.9,0.3C235.3,561.9,235.1,561,234.4,561.1L234.4,561.1z"/>
			</g>
		</g>
		<g>
			<g>
				<path class="st5" d="M234.4,562.3c9.6,0.7,18.7-4.8,25.8-10.7c8.2-6.8,14.1-15.2,19-24.7c2.5-5,4.8-10.1,7.6-14.9
					c3-5,6.6-9.5,10-14.2c3.6-4.8,7.4-9.1,12-13c4-3.4,8.2-6.5,12.1-10.1c9-8.3,12.9-19.9,15.4-31.6c0.1-0.6-0.8-0.9-1-0.3
					c-2.2,10.4-5.5,21.7-13.3,29.4c-7.3,7.2-16.3,12.6-22.9,20.6c-6.8,8.2-12.8,17.1-17.5,26.6c-4.8,9.7-9.7,19.3-17.5,27
					c-7.7,7.6-18.4,15.5-29.8,14.7C233.7,561.2,233.7,562.2,234.4,562.3L234.4,562.3z"/>
			</g>
		</g>
	</g>
	<g id="Layer_60">
		<g>
			<g>
				<path class="st5" d="M206.6,322.8c-1.6,0.8-2.8,1.9-3.6,3.5c-0.2,0.3,0,0.8,0.4,0.8c1.4,0-0.3,7.1-0.5,8c0,0.3,0.1,0.6,0.3,0.6
					c1.5,0.3,2.8,1.6,3.4,3c1,2.3-0.5,2.6-1.6,3.9c-1.1,1.3-1.4,2.9-0.9,4.6c0.1,0.2,0.3,0.4,0.5,0.4c1.4,0.1,1,0.7,0.9,1.9
					c0,0.3,0.2,0.5,0.5,0.5c2-0.1,4.1-0.2,6.1-0.3c-0.1-0.3-0.3-0.5-0.4-0.8c-0.3,0.7-0.6,1.3-0.9,2c-0.2,0.5,0.2,0.9,0.7,0.7
					c1.8-0.8,1.9-0.3,1.7,1.2c-0.2,0.9-0.4,1.9-0.7,2.8c-0.7,1.9-1.6,3.6-2.8,5.3c-0.2,0.3,0,0.6,0.3,0.7c1.3,0.4,3.4,1,2.9,3.1
					c-0.1,0.3,0.2,0.6,0.5,0.6c1.6,0.1,1.4,2.7,1.5,3.8c0.1,0.6,1.1,0.6,1,0c-0.2-1.3-0.3-2.7-0.5-4c0-0.2-0.1-0.4-0.4-0.5
					c-0.9-0.4-0.7-0.3-1.7-0.3c0.2,0.2,0.3,0.4,0.5,0.6c0.6-2.5-1.4-3.7-3.6-4.3c0.1,0.2,0.2,0.5,0.3,0.7c2.4-3.2,3.7-6.9,3.9-10.9
					c0-0.3-0.2-0.5-0.5-0.5c-1.1,0-2,0.2-2.9,0.7c0.2,0.2,0.5,0.5,0.7,0.7c0.3-0.7,0.6-1.3,0.9-2c0.1-0.3,0-0.8-0.4-0.8
					c-1.3,0.1-2.6,0.1-3.9,0.2c-1.7,0.1-1.6,0-1.6-1.7c0-0.3-0.2-0.5-0.5-0.5c-2.4-0.1-1-2.8,0.1-3.8c0.5-0.5,1.1-0.8,1.4-1.4
					c0.4-0.6,0.6-1.2,0.4-1.9c-0.4-2.1-2.5-4.4-4.6-4.8c0.1,0.2,0.2,0.4,0.3,0.6c0.3-1.6,3-9.3-0.5-9.2c0.1,0.3,0.3,0.5,0.4,0.8
					c0.8-1.5,1.8-2.4,3.2-3.1C207.7,323.4,207.2,322.5,206.6,322.8L206.6,322.8z"/>
			</g>
		</g>
		<g>
			<g>
				<path class="st5" d="M217.7,390.2c-1.1-0.1-2.3,0.5-3.4,0.3c-0.6-0.1-0.9-0.7-1.6-0.7c-0.8,0-1.2,0.4-1.5,1.1
					c-0.1,0.2-0.1,0.5-0.2,0.7c-0.2,1,0.6,4.4-2.5,3.2c-0.2-0.1-0.4,0-0.5,0.1c-0.8,0.9-1.7,1.8-2.5,2.7c-0.5,0.5-1.4,2-2,2.2
					c-0.6,0.2-1.4-0.3-2.2,0.1c-0.6,0.2-0.3,1.2,0.3,1c0.5,0.1,1,0.1,1.4,0.2c0.2,0.2,0.5,0.2,0.7,0c1.2-1.4,2.4-2.8,3.8-4.1
					c1.1-1.1,1.5-0.7,2.8-1.1c0.7-0.3,1.2-0.8,1.5-1.5c0.1-0.2,0.1-0.5,0.2-0.8c0.1-0.5-0.3-4.2,2.2-2c0.2,0.2,0.4,0.2,0.6,0.1
					c1-0.5,2-0.7,3-0.5C218.3,391.2,218.3,390.2,217.7,390.2L217.7,390.2z"/>
			</g>
		</g>
		<g>
			<g>
				<path class="st5" d="M220.2,390.8c0.5,1.9,2.2,2.9,4.2,2.9c1.3-0.1,2.1-0.9,3.3-1.2c0.6-0.7,1.1-0.6,1.7,0.2
					c0.2,0.2,0.3,0.5,0.5,0.7c0.7,0.8,1.3,1.9,1.9,2.8c0.1,0.2,0.3,0.3,0.6,0.2c0.6-0.2,0.8-0.7,1.3-1c1.1-0.5,1.8,0.5,2.7,0.8
					c1.5,0.5,3,0,4-1.1c0.4-0.5-0.3-1.2-0.7-0.7c-1.3,1.4-2.6,1.1-4.1,0.2c-0.5-0.3-0.3-0.5-0.9-0.7c-0.4-0.1-0.7,0-1.1,0.2
					c-1.1,0.6-0.8,1.5-1.9,0.1c-0.9-1.1-1.7-2.4-2.6-3.5c-0.1-0.2-0.4-0.2-0.6-0.1c-2,1.4-6.3,3.7-7.4-0.1
					C220.9,389.9,220,390.2,220.2,390.8L220.2,390.8z"/>
			</g>
		</g>
		<g>
			<g>
				<path class="st5" d="M217.3,375.3c-1,0.8-3.5,2.8-3.2,4.4c0.1,0.6,0.6,0.9,1,1.3c1,0.8,5.6,4,2.1,5.3c-0.3,0.1-0.4,0.3-0.3,0.6
					c0.2,0.7,0.2,0.8,0.9,1.1c0.6,0.3,1.1-0.6,0.5-0.9c-0.1-0.2-0.3-0.4-0.4-0.5c-0.1,0.2-0.2,0.4-0.3,0.6c1.7-0.6,2.2-2.5,1.5-4.1
					c-0.5-1-1.4-1.5-2.2-2.3c-0.8-0.8-1.7-1.3-1.1-2.5c0.5-0.9,1.5-1.8,2.3-2.4C218.5,375.6,217.8,374.9,217.3,375.3L217.3,375.3z"
					/>
			</g>
		</g>
	</g>
	<g id="Layer_56">
		<g>
			<g>
				<path class="st5" d="M223.2,451.4c1.4,2.6-3.9,1.9-4.8,1.8c-1.6-0.1-3.2-0.3-4.7-0.4c-2.3-0.1-4.7,0-6.7,1.2
					c-3.6,2.2-4.5,6.9-5.2,10.7c-0.1,0.4,0.5,0.9,0.8,0.5c0.5-0.3,0.9-0.5,1.4-0.8c-0.2-0.2-0.4-0.3-0.6-0.5
					c0.2,2.4,0.3,4.7,0.5,7.1c0.2-0.2,0.4-0.3,0.6-0.5c-2.4-0.6-4.3-1.8-5.9-3.7c-0.3-0.3-0.9-0.1-0.9,0.4c0.4,6.3,2,13.1,6.9,17.4
					c2.7,2.4,6.1,3.8,8.7,6.3c2.4,2.5,3.6,5,7.2,5.7c6.5,1.3,13.9,1.3,18.9-3.5c2.7-2.6,4.9-5.8,7.5-8.6c2.5-2.7,5.1-5.4,6.8-8.7
					c1.7-3.2,2.6-7,1.6-10.5c-1.2-4.2-5.7-8.4-3-12.9c0.2-0.4-0.3-1-0.7-0.7c-1.1,0.8-3,2.7-4.3,3c-2.7,0.6-2.6-1.7-3.8-3
					c-1.4-1.5-3.4-1.1-5.1-0.5c-1.7,0.7-3.4,1.5-5.1,2.3c-0.8,0.4-1.8,1-2.7,1.2c-1,0-2-0.1-3-0.1c-0.3-0.5-0.5-1.1-0.7-1.7
					c-0.6-1.4-1.5-2.7-3.2-2.2c-0.6,0.2-0.4,1.2,0.3,1c1.9-0.6,2.3,4.4,4.5,4.6c1.2,0.1,2.5-0.8,3.5-1.2c1.9-0.9,3.8-1.7,5.8-2.6
					c1.7-0.7,2.1-1,3.9-0.3c1.7,0.6,1.4,0.6,2.1,1.9c0.4,0.6,0.7,1.3,1.4,1.7c2.3,1.1,5.2-2,6.9-3.2c-0.2-0.2-0.5-0.5-0.7-0.7
					c-1.7,2.9-0.8,6,0.7,8.8c0.9,1.9,2.1,3.6,2.5,5.7c0.6,2.9-0.2,5.9-1.5,8.6c-2,4-5.3,7.2-8.3,10.5c-2.8,3.2-5.2,7.3-9.1,9.3
					c-4.2,2.3-10,1.8-14.5,1c-4.5-0.8-6.2-5.1-9.6-7.6c-3.5-2.5-7.1-4.4-9.4-8.2c-2.3-3.9-3.1-8.4-3.4-12.8
					c-0.3,0.1-0.6,0.2-0.9,0.4c1.7,2,3.8,3.3,6.3,4c0.3,0.1,0.7-0.1,0.6-0.5c-0.2-2.4-0.3-4.7-0.5-7.1c0-0.3-0.3-0.5-0.6-0.5
					c-0.9,0.1-1.3,0.4-1.8,1.1c0.3,0.2,0.6,0.3,0.8,0.5c0.5-2.7,1-5.5,2.5-7.8c2.2-3.4,6-3.6,9.7-3.3c1.7,0.1,11.8,1.8,9.1-3.1
					C223.7,450.3,222.9,450.8,223.2,451.4L223.2,451.4z"/>
			</g>
		</g>
		<g>
			<g>
				<path class="st5" d="M224.8,451.5c-0.4-0.9-0.7-1.4-0.5-2.3c0-0.2,0.7-1.2,0.8-1.5c-0.2,0.1-0.4,0.2-0.6,0.3
					c0.6,0.3,1.1,0.5,1.7,0.8c0.3,0.2,0.9,0.1,0.9-0.4c-0.2-3-2-4.2-4.6-5.2c-1.9-0.7-1.2-0.5,0.3-1.1c1.5-0.6,2.5-1.7,3.2-3.1
					c0.1-0.3,0-0.7-0.3-0.7c-0.5-0.1-3.9-0.6-4.2-1c-0.4-0.7,1.4-1.7,1.8-2.1c0.8-0.8,0.7-2,0.3-3c-0.3-0.9-0.9-1.5-1.5-2.3
					c-0.8-1.1-0.8-0.9-0.6-2.5c0.2-1.7,0.3-1.3,1-2.3c0.6-0.9,0.7-1.8,0.2-2.8c-0.4-0.8-1-1.4-1.4-2.1c-0.7-1.3-0.4-2.7-0.3-4.1
					c0.1-1.6-0.4-3.2-1.3-4.5c-0.7-0.9-1.1-1-1.1-2.3c0-1.1,0.3-2.3,0.5-3.5c0.4-3.2,0.5-6.4,0.5-9.6c0-0.6-1-0.6-1,0
					c0,4.8-0.4,9.5-1.2,14.3c0,0.2,0,0.4,0.2,0.6c1.2,0.9,2,2.1,2.3,3.5c0.3,1.3-0.3,2.3-0.2,3.5c0,1.3,0.4,2,1.1,3.1
					c0.8,1.2,1.8,1.9,0.6,3.7c-0.2,0.4-0.7,0.6-1,1c-0.7,0.9-0.7,1.8-0.3,2.8c0.6,1.6,2.6,2.8,2.8,4.5c0.2,2.2-2.5,1.8-3,3.3
					c-0.2,0.6-0.1,1,0.4,1.4c1,0.9,3.9,1,5.2,1.4c-0.1-0.2-0.2-0.5-0.3-0.7c-1,1.9-2.6,2.9-4.7,3c-0.3,0-0.5,0.2-0.5,0.5
					c0,0.8,0.2,1.6,0.9,2.1c0.2,0.2,1.9,0.1,2.1,0.2c1.8,0.6,3,2.2,3.2,4.1c0.3-0.1,0.6-0.2,0.9-0.4c-0.7-0.5-1.3-0.8-2.1-1.1
					c-0.3-0.1-0.5,0.1-0.6,0.3c-0.3,0.5-0.7,0.9-1,1.4c-0.2,0.1-0.3,0.3-0.2,0.6c0.3,0.8,0.6,1.6,1,2.3
					C224.1,452.4,225.1,452.1,224.8,451.5L224.8,451.5z"/>
			</g>
		</g>
	</g>
	<g id="Layer_57">
		<g>
			<g>
				<path class="st5" d="M116.7,491.7c8.4,4,16.5,7.4,25.7,8.7c2.4,0.3,4.8,0.7,7.1,1.3c2,0.5,3.7,1.5,5.6,2.1c2,0.7,4,0.6,6.1,0.4
					c2.6-0.2,6.7-0.2,7.2,3.4c0.1,0.4,0.4,0.6,0.8,0.4c1.9-0.8,2.9-2.5,2.8-4.5c0-0.6-0.8-0.7-1-0.1c-0.6,1.8-0.7,3.5-0.3,5.4
					c0.1,0.3,0.4,0.4,0.6,0.3c3.1-0.9,6.9,0.8,9.6-1.5c1.4-1.2,2.2-3,1-4.6c-0.3-0.4-0.8-0.3-0.9,0.1c-2.3,5.9,6.3,6.7,9.7,7.9
					c2.5,0.9,4.9,2.5,7.7,2.2c3-0.4,5.1-2.7,7-4.9c0.4-0.5-0.3-1.2-0.7-0.7c-1.6,1.8-3.4,3.9-5.8,4.5c-2.5,0.6-4.9-0.8-7.1-1.7
					c-3.1-1.3-11.9-1.7-9.9-7c-0.3,0-0.6,0.1-0.9,0.1c2.4,3.3-3.1,4.4-5.1,4.3c-1.7-0.1-3.3-0.2-4.9,0.3c0.2,0.1,0.4,0.2,0.6,0.3
					c-0.4-1.7-0.2-3.2,0.3-4.9c-0.3,0-0.7-0.1-1-0.1c0.1,1.7-0.7,3-2.3,3.7c0.3,0.1,0.5,0.3,0.8,0.4c-0.4-3-3.2-4.4-6-4.4
					c-2.8-0.1-5.3,0.6-8-0.3c-2.5-0.8-4.8-2-7.4-2.5c-5-1.1-10.1-1.4-15.1-2.9c-5.4-1.7-10.6-4.1-15.7-6.5
					C116.6,490.5,116.1,491.4,116.7,491.7L116.7,491.7z"/>
			</g>
		</g>
		<g>
			<g>
				<path class="st5" d="M205.2,507.9c0.4-3,3.5-0.1,3.8,1.2c0.2,0.7,0.3,1.3,0.4,2c0.2,1.1,0.5,2.3,1.3,3.2
					c1.4,1.7,3.2,1.2,5.1,0.8c3.9-0.9,6.7,1.6,10.3,2.5c3.2,0.8,6.6,0.7,9.9,0.3c3.2-0.4,6.2-1.2,9.2-2.3c2.3-0.8,3.8-1,6.2-0.6
					c1.3,0.2,2.3,0.4,3.6-0.2c4.7-2.1,8-7.1,9.3-12c-0.3,0.1-0.6,0.1-0.8,0.2c0.9,0.9,1.5,1.8,1.9,3.1c0.2,0.6,1.1,0.4,1-0.3
					c-0.4-1.4-1-2.5-2.1-3.5c-0.3-0.3-0.7-0.2-0.8,0.2c-0.9,3.3-2.6,6.4-5.1,8.7c-1.9,1.8-3.9,3.2-6.6,2.8c-1.4-0.2-2.2-0.6-3.6-0.4
					c-3.2,0.5-6.3,2.1-9.5,2.8c-4,0.8-8.2,1-12.2,0.1c-2.8-0.6-5.4-2.8-8.3-2.9c-1.3,0-2.5,0.7-3.8,0.7c-3.8,0.2-3.7-2.5-4.2-5
					c-0.4-1.6-1.1-3.4-2.8-3.7c-1.4-0.3-2.9,0.4-3.1,1.9C204.1,508.2,205.1,508.5,205.2,507.9L205.2,507.9z"/>
			</g>
		</g>
		<g>
			<g>
				<path class="st5" d="M264.5,504.9c1.8,5.7,3.5,11.5,3.2,17.6c-0.2,3.1-0.9,6.3-2.4,9c-0.8,1.4-1.7,2.8-2.9,3.7
					c-1.9,1.4-4,1.2-6.2,0.7c-1.4-0.3-3.2-0.6-4.2-1.6c-1.1-1.2-1.2-3.1-0.8-4.6c0.7-2.7,2.9-4.7,4.5-6.9c3-4.3,5.2-9,6.5-14.1
					c0.2-0.6-0.8-0.9-1-0.3c-1,3.8-2.5,7.5-4.6,10.9c-1.8,3-4.6,5.6-6,8.9c-0.9,1.9-1.1,4.3,0.1,6.2c1.3,2,4.3,2.4,6.5,2.7
					c6.5,0.9,9.8-5.1,11-10.8c1.6-7.4-0.5-14.7-2.7-21.7C265.2,504,264.3,504.2,264.5,504.9L264.5,504.9z"/>
			</g>
		</g>
		<g>
			<g>
				<path class="st5" d="M205.6,506.8c-1.9,2.9-4.1,5.7-4.4,9.3c-0.3,4,0,8.1,0.1,12.2c0.1,5.4,0.6,12.4,7.3,13.4
					c4.6,0.7,10.4-2.5,10.4-7.7c0-3.2-2.9-5.8-3.9-8.7c-1.3-3.9-2-8.2-2.9-12.2c-0.1-0.6-1.1-0.4-1,0.3c1.2,5.3,1.8,11.4,4.7,16.1
					c1.7,2.8,3,5.2,0.7,8.1c-1.9,2.5-5.3,3.7-8.4,3c-6.7-1.5-5.8-9.9-5.9-15.2c0-3.1-0.3-6.2,0-9.3c0.3-3.4,2.4-6.1,4.3-8.8
					C206.8,506.8,205.9,506.3,205.6,506.8L205.6,506.8z"/>
			</g>
		</g>
		<g>
			<g>
				<path class="st5" d="M212.8,516.4c-1.4-3-2.5-6-3.3-9.2c-0.2-0.6-1.1-0.4-1,0.3c0.8,3.3,2,6.4,3.4,9.4
					C212.2,517.5,213.1,517,212.8,516.4L212.8,516.4z"/>
			</g>
		</g>
	</g>
	<g id="Layer_58">
		<g>
			<g>
				<path class="st5" d="M185.5,510c0.6,5.9,2.1,11.7,3.3,17.6c0.6,3,1.2,6.1,2.1,9c0.6,1.9,1.3,5.5,2.9,6.9
					c2.8,2.5,6.1-3.7,6.8-5.6c0.9-2.2,1.4-4.5,1.3-6.9c-0.1-3.3-1.3-6.5,0.1-9.7c0.3-0.6-0.6-1.1-0.9-0.5c-1.6,3.7,0,7.5-0.2,11.4
					c-0.1,2.6-0.9,5.1-2.3,7.3c-0.6,0.9-1.6,2.8-2.7,3.2c-1.9,0.7-2.7-2.4-3.1-3.4c-1.7-4.5-2.5-9.3-3.5-13.9
					c-1.1-5.1-2.3-10.2-2.9-15.4C186.4,509.4,185.4,509.4,185.5,510L185.5,510z"/>
			</g>
		</g>
		<g>
			<g>
				<path class="st5" d="M223.5,516.6c-2.6-1.4-2,3.6-1.8,4.7c0.3,2.3,0.5,5.4,2.9,6.5c2.6,1.2,5.5-0.4,7.5-2
					c0.9-0.7,1.6-1.3,1.5-2.5c0-0.7-0.5-1.4-0.6-2.1c-0.4-1.5-0.3-2.8,0-4.3c0.1-0.6-0.8-0.9-1-0.3c-0.3,1.4-0.4,2.7-0.2,4.1
					c0.3,1.7,1.3,2.6-0.3,4.3c-0.5,0.5-1.4,1-2,1.3c-2.3,1.3-5.4,1.5-6.3-1.6c-0.2-0.8-0.4-1.7-0.5-2.6c0,0-0.5-5,0.2-4.6
					C223.6,517.8,224.1,516.9,223.5,516.6L223.5,516.6z"/>
			</g>
		</g>
		<g>
			<g>
				<path class="st5" d="M234.3,518c-0.5,3.7,0.2,8.9,5.2,8.3c1.7-0.2,3.2-1.3,4-2.9c1.3-2.4,0.1-5.1,0.7-7.7c0.1-0.6-0.8-0.9-1-0.3
					c-0.7,3.1,1.2,7.3-2.3,9.3c-2.2,1.3-4.9,0.1-5.6-2.3c-0.4-1.5-0.2-3,0-4.5C235.4,517.4,234.4,517.4,234.3,518L234.3,518z"/>
			</g>
		</g>
		<g>
			<g>
				<path class="st5" d="M243.3,524.8c0,0.1,0.1,0.2,0.1,0.2c0.1,0.2,0.2,0.4,0.5,0.4c0.1,0,0.2,0,0.2,0c0.3,0,0.5-0.2,0.5-0.5
					c0-0.1,0-0.2,0-0.2c0-0.2-0.2-0.4-0.4-0.5c-0.4-0.2-0.8-0.4-1.2-0.6c-0.1,0.3-0.2,0.6-0.3,0.9c2.3-0.1,4.4,1.2,6.6,0.9
					c1.4-0.2,2.7-0.7,3.8-1.6c2.5-2.2,2.8-5.8,1.2-8.6c-0.3-0.6-1.2-0.1-0.9,0.5c1.8,3.2,0.6,7.4-3,8.5c-2.6,0.8-5.1-0.8-7.7-0.7
					c-0.5,0-0.7,0.7-0.3,0.9c0.4,0.2,0.7,0.3,1.1,0.5c0.2,0.1,0.2,0.1,0-0.1c0.2-0.2,0.3-0.3,0.5-0.5c0,0,0.1,0.1,0.1,0.1
					C244,523.9,243,524.2,243.3,524.8L243.3,524.8z"/>
			</g>
		</g>
		<g>
			<g>
				<path class="st5" d="M222.8,524.4c-0.9,1-1.9,1.8-3.2,2.2c-0.9,0.3-3.5,0.8-3.8-0.4c-0.2-0.6-1.1-0.4-1,0.3
					c0.4,1.5,2.4,1.5,3.6,1.4c2-0.2,3.8-1.2,5.1-2.8C223.9,524.6,223.2,523.9,222.8,524.4L222.8,524.4z"/>
			</g>
		</g>
		<g>
			<g>
				<path class="st5" d="M218,536.3c-1.1,0.9-0.9,2.6,0.2,3.5c1.3,1.1,3.2,0.3,4.1-0.9c1.2-1.4,1.5-4.2,1-6c-0.7-2.1-3.7-1-5.2-0.8
					c-0.6,0.1-0.6,1.1,0,1c0.9-0.1,2.1-0.5,3.1-0.4c1.4,0.1,1.4,1.6,1.3,2.8c-0.1,1.3-0.4,2.7-1.6,3.4c-0.6,0.4-1.3,0.4-1.8,0
					c-0.7-0.5-0.9-1.4-0.2-1.9C219.2,536.6,218.5,535.9,218,536.3L218,536.3z"/>
			</g>
		</g>
		<g>
			<g>
				<path class="st5" d="M223.5,538c1.7-0.4,0.7-3.3-0.8-2.2c-0.6,0.4-0.7,1.4-0.2,1.9c0.7,0.7,2,0.9,2.9,0.8c2.5-0.3,4-2.7,3.3-5
					c-0.3-1.1-1.1-2.1-2.1-2.5c-0.5-0.2-1.1-0.3-1.6-0.1c-0.5,0.2-1.5,1.2-2.1,1c-0.6-0.3-1.1,0.6-0.5,0.9c0.7,0.3,1.2,0.2,1.8-0.2
					c0.8-0.5,1.8-0.9,2.7-0.1c0.5,0.4,0.8,1,0.9,1.6c0.3,1.3-0.2,2.6-1.4,3.3c-0.5,0.3-1.2,0.4-1.8,0.4c-0.3,0-0.6-0.1-0.8-0.2
					c-0.4,0-0.5-0.1-0.5-0.4c0-0.2,0-0.2-0.2,0.1C222.6,537.2,222.8,538.1,223.5,538L223.5,538z"/>
			</g>
		</g>
		<g>
			<g>
				<path class="st5" d="M228.4,537.1c1.4,1.1,3.4,1.9,5,0.7c1.4-1,1.8-3.2,2-4.8c0.3-4.3-5.4-3.6-7.3-1.3c-0.4,0.5,0.3,1.2,0.7,0.7
					c0.9-1,2.1-1.7,3.4-1.6c0.5,0,1.2,0.1,1.6,0.4c0.9,0.6,0.7,1.6,0.5,2.4c-0.1,0.9-0.4,2-0.9,2.8c-1.2,1.7-3.1,0.8-4.4-0.2
					C228.4,535.9,227.9,536.7,228.4,537.1L228.4,537.1z"/>
			</g>
		</g>
		<g>
			<g>
				<path class="st5" d="M235.5,532.8c1-0.8,3.1-2.7,4.5-2.3c1.4,0.5,1.4,2.6,1.1,3.7c-0.3,1.3-1.2,2.6-2.6,2.9
					c-1.5,0.4-3.1-0.4-3.5-1.9c-0.2-0.6-1.1-0.4-1,0.3c0.5,1.8,2.2,2.9,4,2.7c2-0.1,3.5-1.9,4-3.8c0.4-1.6,0.2-3.9-1.4-4.8
					c-2-1.1-4.5,1.3-5.9,2.4C234.3,532.5,235,533.3,235.5,532.8L235.5,532.8z"/>
			</g>
		</g>
		<g>
			<g>
				<path class="st5" d="M240.3,537.9c2.4,0.7,5.2-0.4,6.1-2.9c1-2.9-1.7-3.9-4-4.1c-0.6-0.1-0.6,0.9,0,1c1.9,0.2,4.2,1,2.8,3.4
					c-0.9,1.6-2.9,2.1-4.6,1.7C239.9,536.8,239.7,537.7,240.3,537.9L240.3,537.9z"/>
			</g>
		</g>
		<g>
			<g>
				<path class="st5" d="M245.8,536.8c0.7,1.2,2.4,1.6,3.6,0.8c1.4-0.9,1.7-2.6,1.4-4.1c-0.2-1.4-1-4-2.4-4.6
					c-1.6-0.8-2.8,1-3.4,2.2c-0.3,0.6,0.6,1.1,0.9,0.5c0.1-0.2,0.2-0.5,0.4-0.7c0.5-0.8,0.7-1.1,1.6-0.7c1.1,0.4,1.3,1.4,1.7,2.5
					c0.3,0.9,0.5,1.8,0.2,2.7c-0.4,1.3-2.2,2.5-3.2,0.9C246.3,535.8,245.4,536.3,245.8,536.8L245.8,536.8z"/>
			</g>
		</g>
		<g>
			<g>
				<path class="st5" d="M171.1,507.1c-0.3-0.1-0.6-0.2-0.9-0.3c-0.3-0.1-0.6,0.2-0.6,0.5c-0.3,4.4-0.4,8.8,0,13.2
					c0.2,2.5,0.2,5.7,1.2,8.1c0.7,1.6,2.2,2.5,3.9,1.8c2-0.8,2.8-3.4,3.7-5.1c0.3-0.6-0.6-1.1-0.9-0.5c-0.8,1.5-1.4,3.9-3.2,4.5
					c-3.1,1.1-3.2-3.9-3.4-5.9c-0.6-5.3-0.6-10.6-0.2-16c-0.2,0.2-0.4,0.3-0.6,0.5c0.3,0.1,0.6,0.2,0.9,0.3
					C171.5,508.3,171.8,507.3,171.1,507.1L171.1,507.1z"/>
			</g>
		</g>
		<g>
			<g>
				<path class="st5" d="M189.3,531.8c-6,0.9-11.6-3.4-11.7-9.5c-0.1-5.2,4.1-8.8,6.6-12.9c0.3-0.5-0.5-1.1-0.9-0.5
					c-3.2,5.2-8.3,9.8-6.2,16.5c1.7,5.4,7.1,8.2,12.5,7.4C190.2,532.7,189.9,531.7,189.3,531.8L189.3,531.8z"/>
			</g>
		</g>
		<g>
			<g>
				<path class="st5" d="M158.4,505.1c0.1-0.9,0-1.3-0.8-1.8c-0.3-0.2-0.7,0.1-0.8,0.4c-0.1,2.7-0.8,4.9-1.9,7.4
					c-0.5,0.9-1.1,1.9-1.1,3c0.1,2.5,2.7,3.6,4.6,4.6c1.2,0.6,2.7,1.7,4.1,1.8c1.3,0,1.7-1,3-1.2c2.1-0.4,3.7-0.3,4.5-2.8
					c0.2-0.6-0.8-0.9-1-0.3c-0.7,2.3-3.2,2-5,2.4c-0.6,0.7-1.5,0.9-2.6,0.4c-0.6-0.3-1.1-0.5-1.7-0.8c-0.9-0.4-1.8-0.8-2.6-1.3
					c-2-1.2-2.7-2.2-1.8-4.6c0.3-0.8,0.8-1.6,1.2-2.4c0.8-2,1.2-4,1.3-6.1c-0.3,0.1-0.5,0.3-0.8,0.4c0.1,0.2,0.2,0.4,0.4,0.6
					C157.4,505.5,158.3,505.7,158.4,505.1L158.4,505.1z"/>
			</g>
		</g>
		<g>
			<g>
				<path class="st5" d="M149.3,501.6c-0.1-0.2-0.2-0.4-0.4-0.7c-0.3,0-0.6,0-1,0c0.7,1.6,0.1,3.2,0.3,4.8c0.2,1.5,1.1,1.8,2.2,2.7
					c0.9,0.8,1.2,1.5,2.6,1.1c1.6-0.4,3-1.5,4.2-2.7c0.5-0.5-0.3-1.2-0.7-0.7c-0.9,0.9-2.4,2.3-3.7,2.4c-0.7,0.1-2-1.1-2.6-1.5
					c-1.9-1.3-0.5-4.4-1.3-6.4c-0.2-0.4-0.8-0.5-1,0c-0.2,0.8,0.1,1.4,0.8,1.8C149.3,502.7,149.8,501.8,149.3,501.6L149.3,501.6z"/>
			</g>
		</g>
		<g>
			<g>
				<path class="st5" d="M148.4,505.6c-2.4,0.9-6,3.2-3.7,6.1c2,2.5,6.9,3.1,9.6,1.8c0.6-0.3,0.1-1.1-0.5-0.9
					c-2.1,1-5.2,0.6-7.2-0.6c-1.4-0.8-2.1-2.2-1.1-3.6c0.7-0.9,2-1.5,3.1-1.9C149.3,506.4,149,505.4,148.4,505.6L148.4,505.6z"/>
			</g>
		</g>
		<g>
			<g>
				<path class="st5" d="M268.1,524c0.6,1.4,1.2,2.9,1.8,4.3c0.2,0.4,0.4,1.2,0.8,1.5c0.9,0.7,1.6-0.2,2.3-0.9
					c3.3-3.5,3.6-7.9,3.5-12.4c-0.1-4.2-0.6-8.8-3.7-12c-0.6-0.6-1.9-1.9-2.9-1.6c-0.6,0.2-0.9,1-1.2,1.4c-0.8,1.2-1.5,2.4-2.3,3.6
					c-0.3,0.5,0.5,1,0.9,0.5c0.7-1,1.4-2.9,2.3-3.6c0.2-0.2,0.3-0.5,0.5-0.7c0.7,0.1,1.3,0.4,1.8,0.9c0.6,0.5,1.1,1.2,1.5,1.9
					c1.7,2.7,2.1,6,2.2,9.2c0.1,2.9,0.2,6-1,8.7c-0.5,1.2-1.6,3.9-3,3.5c-1.1-0.3-1.9-3.5-2.4-4.5
					C268.8,523.1,267.9,523.4,268.1,524L268.1,524z"/>
			</g>
		</g>
		<g>
			<g>
				<path class="st5" d="M271,504c1.2-0.1,2.6-0.3,3.6-1.2c0.5-0.4,0.5-0.8,0.8-1.3c1.1-1.4,3.8-4.1,5.1-0.7
					c0.9,2.3,0.5,5.5-1.2,7.3c-0.5,0.5-1.1,0.9-1.5,1.4c-0.2,0.3-1.8,3.4-2.1,2.5c-0.3-0.6-1.1-0.1-0.9,0.5c0.8,1.7,2.5,0.5,3-0.6
					c1.5-3.1,4.2-4.5,4.1-8.3c-0.1-2-0.1-5.3-2.6-5.6c-1.1-0.1-2.8,0.6-3.6,1.3c-0.6,0.5-0.6,0.7-1,1.3c-1.4,1.8-1.5,2.1-3.7,2.4
					C270.4,503,270.4,504,271,504L271,504z"/>
			</g>
		</g>
		<g>
			<g>
				<path class="st5" d="M280.3,497.9c0.8-0.8,1.5-1.5,2.3-2.3c0.6-0.6,0.6-0.7,1.6-0.6c1.1,0.1,0.9,0.1,1.1,1
					c0.2,1.1,0.4,2.3-0.3,3.3c-0.6,1-1.8,0.8-2.8,1.1c-0.6,0.2-0.4,1.1,0.3,1c1.5-0.5,2.7-0.2,3.5-1.9c0.6-1.3,0.4-3.1,0-4.4
					c-1.2-4.1-5.1,0.8-6.4,2.1C279.1,497.6,279.8,498.3,280.3,497.9L280.3,497.9z"/>
			</g>
		</g>
		<g>
			<g>
				<path class="st5" d="M284,494.7c-1.1-0.7,3.1-6.4,3.4-7.3c0.6-1.8-0.4-2.9-1.7-4c-0.5-0.4-1.2,0.3-0.7,0.7
					c0.9,0.8,1.3,2.9,0.9,4c-0.2,0.6-0.7,1.2-1.1,1.8c-0.6,1.1-1.5,2.2-1.9,3.4c-0.3,0.9-0.3,1.8,0.6,2.3
					C284,495.9,284.5,495.1,284,494.7L284,494.7z"/>
			</g>
		</g>
		<g>
			<g>
				<path class="st5" d="M284.1,491.6c4.4-0.5,5.4-3.4,7.8-6.6c3.5-4.7,8.7-4.5,13.9-5.9c4.4-1.2,8.6-3.7,12.7-5.7
					c3.3-1.6,6.9-3.2,8.2-6.8c0.2-0.6-0.7-0.9-1-0.3c-1.5,4-6.8,5.7-10.3,7.5c-4,2-7.9,4.1-12.4,4.9c-3.4,0.6-6.7,1-9.5,3.2
					c-3.5,2.8-4.3,8.1-9.4,8.7C283.5,490.6,283.5,491.6,284.1,491.6L284.1,491.6z"/>
			</g>
		</g>
	</g>
	<g id="Layer_59">
		<g>
			<g>
				<path class="st5" d="M105.9,384.3c-1,0-1.8,0.7-1.6,1.7c0.2,1.8,3.2,2.9,4.5,3.5c4.5,2.1,9.5,2.8,14.4,2.1
					c6.9-0.9,13.4-3.2,20.3-0.5c5.6,2.2,10,6.9,11.9,12.6c2,5.9,1.3,12.4-0.3,18.3c-1.7,6.1-4.4,11.8-9.6,15.7
					c-4.1,3.1-11.5,6.3-16,2.2c-1.9-1.7-2.3-4.4-4.2-6.2c-1.7-1.6-3.8-2.6-5.6-4c-3.1-2.4-3.7-5.6-3.7-9.4
					c-0.1-3.6,0.1-7.2,0.4-10.8c0.5-5.4,0.7-15.5,7.1-17.6c0.6-0.2,0.3-1.2-0.3-1c-4.4,1.4-6,6.1-6.8,10.2
					c-1.2,6.6-1.8,13.6-1.5,20.3c0.1,2.5,0.5,5,2,7c1.4,1.9,3.6,3,5.5,4.3c1.2,0.8,2.4,1.7,3.3,3c0.8,1.2,1.2,2.6,2.1,3.8
					c1.3,1.7,3.2,2.6,5.2,3c4.9,0.8,9.9-1.6,13.6-4.6c4.7-3.8,7.3-9.2,9-14.9c3.2-10.8,2.5-23.3-7.4-30.3c-5.6-4-12.4-4.5-19-3.3
					c-4.1,0.8-8.1,1.8-12.3,1.3c-1.9-0.2-3.8-0.6-5.6-1.2c-1-0.4-2-0.8-3-1.2c-0.5-0.3-1-0.5-1.5-0.8c-0.9-0.3-1.3-1.1-1.2-2.2
					C106.5,385.3,106.5,384.3,105.9,384.3L105.9,384.3z"/>
			</g>
		</g>
		<g>
			<g>
				<path class="st5" d="M107.9,415.1c-0.2,0.4-0.5,0.8-0.7,1.2c0.3,0.1,0.6,0.2,0.9,0.3c0.2-4.1,2-8.3,3.2-12.2
					c0.6-1.9,1.1-3.8,1.7-5.7c0.5-1.6,1.1-6.2,2.6-7c0.6-0.3,0.1-1.1-0.5-0.9c-1.3,0.6-1.5,2-1.8,3.3c-0.8,2.7-1.6,5.4-2.4,8.1
					c-1.4,4.6-3.5,9.6-3.8,14.4c0,0.5,0.7,0.7,0.9,0.3c0.2-0.4,0.5-0.8,0.7-1.2C109.1,415,108.3,414.5,107.9,415.1L107.9,415.1z"/>
			</g>
		</g>
		<g>
			<g>
				<path class="st5" d="M128,391.2c-0.6,0-1.2-0.1-1.9-0.1c-0.6,0-0.7,0.8-0.1,1c3.4,0.9,6.8,0.9,10.2,0c-0.2-0.2-0.4-0.4-0.6-0.6
					c-1.2,3.7,2.6,6.2,3.5,9.5c1.4,5.2-2.1,10.3-3,15.3c-0.3,1.9-0.3,3.7,0.2,5.6c0.6,2,1.8,3.8,2.3,5.8c0.7,3-0.4,6-3,7.8
					c-1.2,0.9-2.7,1.3-4.2,1.4c-0.8,0.1-3.3,0.2-3.8-0.3c0.4,0.5,1.1-0.2,0.7-0.7c-0.1-0.1-0.1-0.2-0.2-0.2
					c-0.1-0.1-0.3-0.2-0.5-0.1c-0.5,0.1-0.6,0.2-0.8,0.7c-0.1,0.2-0.1,0.4,0,0.5c2,2.8,7.9,0.9,10-0.9c3.4-2.8,3.5-6.9,1.9-10.7
					c-1.5-3.6-2.3-6.4-1.2-10.4c0.7-2.8,2-5.4,2.5-8.2c0.4-2.2,0.6-4.5-0.2-6.6c-1-2.6-4.2-5.1-3.2-8.2c0.1-0.4-0.3-0.7-0.6-0.6
					c-3.2,0.8-6.4,0.8-9.6,0c0,0.3-0.1,0.7-0.1,1c0.6,0,1.2,0.1,1.9,0.1C128.6,392.2,128.6,391.2,128,391.2L128,391.2z"/>
			</g>
		</g>
		<g>
			<g>
				<path class="st5" d="M262,400.4c0.5,5.7,2.3,10.9,5.5,15.7c0.2,0.2,0.4,0.3,0.7,0.2c2.7-1.3,3.6-4,4.8-6.5
					c1.5-3.2,3.8-6.3,7.1-7.9c2.5-1.2,5.6-1.5,6.9,1.4c0.7,1.6,0.4,4.6,0.3,6.3c-0.4,4-1.6,7.8-2.7,11.6c-1,3.4-2,6.8-2.3,10.3
					c-0.2,2.1-0.7,5.5,1.9,6.4c1.1,0.4,2.3-0.1,3.4-0.5c2.1-0.8,4.2-1.7,6.3-2.6c4.2-1.7,8.5-3.4,12.7-5.1c0.6-0.2,0.3-1.2-0.3-1
					c-4.2,1.7-8.5,3.4-12.7,5.1c-2.1,0.9-4.2,1.8-6.3,2.6c-0.7,0.3-1.4,0.5-2.2,0.6c-1.4-0.7-2.1-1.7-2-3c-0.1-0.8,0.1-1.7,0.2-2.5
					c0.8-7.7,4.6-14.9,5.1-22.7c0.1-2.3,0.5-6.4-1.6-8c-1.7-1.3-4.7-0.8-6.5,0c-2.8,1.1-5,3.4-6.7,5.9c-1.9,2.9-2.6,7.1-5.9,8.7
					c0.2,0.1,0.5,0.1,0.7,0.2c-3.1-4.6-4.9-9.7-5.4-15.2C263,399.7,262,399.7,262,400.4L262,400.4z"/>
			</g>
		</g>
	</g>
</g>
<g id="flesh_1_" class="st0">
	<g id="eyecolor_xA0_Image_1_" class="st8">
	</g>
	<g id="rpupil_xA0_Image_1_" class="st8">
	</g>
	<g id="lpupil_xA0_Image_1_" class="st8">
	</g>
	<g id="eyegloss_xA0_Image_1_" class="st8">
	</g>
	<g id="Image_xA0_25_xA0_Image_1_" class="st6">
	</g>
	<g id="Layer_9_copy_xA0_Image_1_" class="st8">
	</g>
	<g id="Layer_17_xA0_Image_1_" class="st8">
	</g>
	<g id="reye_xA0_Image_1_" class="st8">
	</g>
	<g id="rjaw_xA0_Image_1_" class="st8">
	</g>
	<g id="nose_xA0_Image_3_" class="st8">
	</g>
	<g id="Image_xA0_31_xA0_Image_1_" class="st6">
	</g>
	<g id="leye_xA0_Image_1_" class="st8">
	</g>
	<g id="ljaw_xA0_Image_1_" class="st8">
	</g>
	<g id="nose_xA0_Image_1_" class="st8">
	</g>
	<g id="Layer_11_xA0_Image_1_" class="st8">
	</g>
	<g id="Layer_12_xA0_Image_1_" class="st8">
	</g>
	<g id="Layer_16_xA0_Image_1_" class="st8">
	</g>
	<g id="snout_xA0_Image_1_" class="st8">
	</g>
	<g id="Image_xA0_39_xA0_Image_1_" class="st6">
	</g>
</g>
<g id="flesh">
	<g id="flrcheek">
		<path class="st5" d="M290.8,494.5c4.2,2.1,9.1,2.7,13.6,1.6"/>
		<path class="st5" d="M299,518.4c7.8,2.7,9.4-19,10-23.3"/>
		<path class="st5" d="M301.4,480c3.7-1.9,4,7.1,4.1,8.9c0.3,7,0,14.3-2.6,20.8"/>
		<path class="st5" d="M305.9,513c7.1-4,2.1-12,3-18.1"/>
		<path class="st5" d="M310.3,502.4c-0.9-3.4,0.4-6.9,0.9-10.4c0.7-5-0.4-10.3-3.2-14.6"/>
		<path class="st5" d="M264.5,529.7c-0.9,0.1-1.8,0.2-2.7,0.3c-0.6,0.1-0.6,1.1,0,1c0.9-0.1,1.8-0.2,2.7-0.3
			C265.1,530.6,265.1,529.6,264.5,529.7z"/>
		<path class="st5" d="M304.4,500.5c-0.6,5.6-5.5,9.6-7.8,14.7c-1.5,3.3-2,7.1-4.1,10.1c0.7,0.5,1.7,0.5,2.5,0.1
			c0.8-0.4,1.4-1.1,1.8-1.8c1.8-3.2,1.5-7.6,4.4-9.9"/>
		<path class="st5" d="M295,496.7c-0.9,2-1.9,4-3,5.9"/>
		<path class="st5" d="M292.6,496c-0.2,0.9-0.5,1.8-0.9,2.6"/>
		<path class="st5" d="M297.9,497.2c-0.8,1.8-1.5,3.5-2.3,5.3c-0.5,1.2-1.1,2.4-1.8,3.6c-0.5,0.8-1.1,1.5-1.6,2.2
			c-0.9,1.2-1.8,2.3-2.7,3.5"/>
		<path class="st5" d="M300.7,497.4c-4.7,10-10,20.2-18.9,26.7c-3.1,2.3-6.5,4-9.2,6.7c0.2-0.1,0.3-0.2,0.5-0.3"/>
		<path class="st5" d="M302.5,496.9c-5,15.2-15.1,28.6-28.2,37.6c0.3-0.2,0.6-0.3,1-0.5"/>
		<path class="st5" d="M276,537.3c5.3-1.4,9-6,12.4-10.3c2.5-3.2,4.9-6.4,7.4-9.5"/>
		<path class="st5" d="M303.8,502c0.4-1.8,0.6-3.6,0.5-5.5"/>
		<path class="st5" d="M278.2,538.7c1.6-0.1,3.1-0.9,4.5-1.8c4.4-3,8-7.1,10.4-11.9"/>
		<path class="st5" d="M280.7,540.7c2.8-2.5,5.3-5.2,7.4-8.3"/>
		<path class="st5" d="M298.4,480.6c1.8,1.8,4,3.2,6.3,4.1"/>
		<path class="st5" d="M294.8,481.2c2.8,2.6,6.1,4.6,9.7,5.9"/>
		<path class="st5" d="M290,481.5c2.4,2.4,5.1,4.6,8,6.4c0.4,0.3,0.9,0.5,1.3,0.6c0.6,0.2,1.2,0.2,1.8,0.3c1.4,0.4,2.4,1.6,3.8,1.6"
			/>
		<path class="st5" d="M286.1,482.4c3.1,1.4,4.9,4.7,7.5,6.9c1.8,1.5,4,2.4,6.1,3.4c1.8,0.8,3.7,1.6,5.5,2.4"/>
		<path class="st5" d="M289,489.5c0.1-0.3,0.5,0,0.7,0.2c0.7,0.8,1.6,1.5,2.4,2.1c2.1,1.4,4.2,2.9,6.6,3.6c1.5,0.4,3.2,0.5,4.8,0.6"
			/>
		<path class="st5" d="M309.8,509.5c2.2-1.5,5.2-2.5,6.2-4.5c1-11,3-22-2.8-32.1"/>
		<path class="st5" d="M310,508.8c0.5-1.6,1.9-2.8,2.7-4.2c1.5-2.5,1.4-5.6,1.1-8.6c-0.3-2.9-0.7-6,0.4-8.7"/>
		<path class="st5" d="M320.1,471.7c-0.5-1-1.2-1.9-2-2.6"/>
		<path class="st5" d="M316.9,499.5c3.5-4.5,4.2-10.4,4.4-16"/>
		<path class="st5" d="M321.1,492c0.6-2.2,3.5-2.6,4.9-4.2c1.7-2,1.9-4.8,1.6-7.3c-0.6-4.4-2.4-13.9-6.9-16"/>
		<path class="st5" d="M328.5,482.8c1.5-7.9,4.8-19-4.4-23.5"/>
		<path class="st5" d="M331.3,475.7c3.9-0.2,6.1-6.3,5.5-9.5c-0.6-3.5-4.6-8.4-7.1-10.9"/>
		<path class="st5" d="M327,456.8c-0.2-0.2-0.4-0.4-0.7-0.6c1.6,1.5,3.3,3,4.2,5c0.4,0.9,0.6,1.8,0.8,2.7c0.4,2.2,0.4,4.5,0,6.8"/>
		<path class="st5" d="M321.8,487c1.8-2.5,2.6-5.8,2-8.8c-0.2-1-0.6-2-0.9-3c-0.2-0.6-0.5-1.1-0.8-1.7c-0.3-0.4-0.6-0.8-1-1.2
			c-0.6-0.7-1.2-1.4-1.8-2.1"/>
		<path class="st5" d="M323.7,461.1c1.8,2.2,2,5.3,2.1,8.1c0,0.9,0.1,1.8,0.1,2.7"/>
		<path class="st5" d="M316.1,470.4c2.9,3.6,3.9,7.6,7,11.3"/>
		<path class="st5" d="M322.7,485.1c-0.3-0.3-0.5-0.7-0.5-1.1c0-0.6-1-0.6-1,0c0,0.7,0.3,1.3,0.8,1.8
			C322.5,486.3,323.2,485.6,322.7,485.1z"/>
		<path class="st5" d="M345.9,437.8c-0.2-0.4-0.4-0.6-0.7-0.9c0.2,0,0.4-0.1,0.5-0.3c0.5-1.6,0.3-2.9-0.5-3.9
			c0.2-0.1,0.3-0.3,0.3-0.6l0-0.1c0-0.2-0.2-0.3-0.3-0.3c-0.1-0.5-0.2-1.1-0.5-1.5c-0.1-0.1-0.2-0.2-0.3-0.4c0.1,0,0.3,0,0.4-0.1
			c2.3-2.2,1.4-5.2,0.6-8c-0.4-1.4-0.7-2.8-1.7-4c-1.3-1.5-4.5-3.9-3.2-6.4c0.3-0.6-0.6-1.1-0.9-0.5c-1,1.9,0.1,3.9,1.3,5.5
			c0.5,0.6,1,1,1.5,1.6c0.9,0.9,1.3,2,1.7,3.2c0.8,2.5,2.1,5.7-0.1,7.8c-0.1,0.1-0.1,0.2-0.1,0.2c-0.4-0.4-0.8-0.8-1.1-1.2
			c-1.6-1.7-3.2-3.2-5-4.7c0.1-0.5,0.1-1,0.2-1.5c0.3-2.5,0.6-5.1,0.9-7.6c0.3-2.5,0.5-5,2.4-6.8c0.3-0.3,0.1-0.8-0.3-0.8
			c0-0.4-0.3-0.8-0.7-0.5c-5.7,4.1-4.6,11.5-6.1,17.5c-1,3.9-2.5,7.8-3.9,11.6c-1.3,3.8-2.6,7.6-4.1,11.4c-2.9,7.2-7.6,13.6-13.2,19
			c-5.5,5.4-12.2,9.2-20.1,9c-9.8-0.3-18.3-5.7-26.2-10.9c-0.5-0.4-1,0.5-0.5,0.9c6.8,4.4,14,9,22.1,10.5c7,1.3,13.8-0.1,19.7-4.1
			c5.7-3.9,10.3-9.3,14.3-15c4.7-6.7,6.9-14.8,9.6-22.5c1.5-4.2,3.2-8.4,3.8-12.9c0.6-4.3,0.6-9.3,3.7-12.6c-1.3,2.1-1.4,4.6-1.7,7
			c-0.3,2.6-0.6,5.3-0.9,7.9c-0.2,0.2-0.3,0.4-0.1,0.6c-0.3,2.2-0.6,4.3-1.1,6.4c-2,9-5.9,17.4-10.1,25.6c-3.7,7.1-8.1,14.2-14.7,19
			c-0.3-0.1-0.5,0.2-0.6,0.4c-2.4,1.6-4.9,2.9-7.5,3.8c-0.1-0.2-0.4-0.4-0.7-0.2c-1.9,1.3-4.6,0.6-6.6,0.2c-1.9-0.3-3.9-0.7-5.8-1.2
			c-4.1-1-8-2.4-11.8-4.2c-0.6-0.3-1.1,0.6-0.5,0.9c4.4,2,9,3.7,13.8,4.7c1.6,0.3,3.6,0.9,5.7,1.2c-3.9,0.7-8,0.8-11.9,0.4
			c-0.6,0-0.6,1,0,1c8.5,0.7,17.3-0.4,24.6-5c0.4-0.3,0.8-0.6,1.2-0.9c1.4,1.6,2.4,3.4,2.9,5.5c0.1,0.6,1.1,0.4,1-0.3
			c-0.5-2.2-1.6-4.1-3-5.8c5.5-4.1,9.6-9.8,12.9-15.7c2.7-4.7,5.2-9.7,7.3-14.8c2.7,1.4,5.4,3,7.8,5c2.7,2.3,1.8,6.3,0.7,9.3
			c0,0,0,0,0,0c-1.3-4.4-5.8-7.6-8.9-10.7c-0.5-0.5-1.2,0.3-0.7,0.7c2.5,2.5,6,5.1,7.8,8.3c2.2,3.7,1.3,8.1-1.6,11.1
			c-0.5,0.5,0.3,1.2,0.7,0.7c2.3-2.4,3.5-5.5,3-8.8c0.2,0,0.3-0.1,0.4-0.3c1-2.6,2.4-7,0.7-9.6c0,0-0.1-0.1-0.1-0.1
			c0.2,0.1,0.4,0.1,0.6-0.1c0.6-0.5,1-1.3,1.1-2.2c0.2,0,0.5,0,0.6-0.3C345.1,445,347.5,440.9,345.9,437.8z M337.7,424.5
			c1.3,1.1,2.6,2.3,3.8,3.5c0.7,0.7,1.4,1.4,2,2.2c0.3,0.4,0.4,0.8,0.5,1.3c-1.8-1.4-4.6-2.1-6.7-2.6c-0.1-0.1-0.2-0.2-0.4-0.2
			C337.3,427.3,337.5,425.9,337.7,424.5z M336.8,429.8c3.3,0.7,9.4,1.9,7.9,6.5c0,0.1,0,0.1,0,0.2c-0.4-0.3-0.9-0.5-1.5-0.7
			c-2.4-0.8-4.8-1.7-7.2-2.8C336.3,432,336.5,430.9,336.8,429.8z M341.7,449.7c-0.1,0.1-0.2,0.3-0.2,0.4c-0.9-1-2.2-1.8-3.2-2.5
			c-1.9-1.3-3.9-2.5-5.9-3.6c0,0,0,0-0.1,0c0.5-1.1,0.9-2.2,1.3-3.4c0,0.1,0.1,0.2,0.2,0.3c0.7,0.5,1.7,0.5,2.4,0.7
			c1.2,0.4,2.3,0.9,3.4,1.6c1,0.6,2.1,1.2,2.5,2.3C342.7,446.5,342.7,448.8,341.7,449.7z M343.5,446.5c-0.1-1-0.4-1.9-0.9-2.5
			c-0.7-0.9-1.9-1.6-2.9-2.1c-0.7-0.4-1.3-0.7-2.1-1c-0.8-0.3-2.1-0.4-2.9-0.7c0-0.1-0.1-0.3-0.3-0.3c0,0-0.1,0-0.1,0
			c-0.1,0-0.3,0-0.4,0.1c0.5-1.4,1-2.8,1.4-4.1c0.2-0.6,0.3-1.1,0.5-1.7c1,0.5,2,0.9,3,1.4c1.3,0.5,3,0.8,4.2,1.4
			C347,438.9,344.9,443.2,343.5,446.5z"/>
	</g>
	<g id="flreye">
		<path class="st5" d="M329,405.4c-1.6,0.3-3.1,0.7-4.7,1c-0.3,0.1-0.4,0.3-0.3,0.5l-2.2,0.7c0,0-0.1,0-0.1,0
			c-3.7,0.6-5.3-3.2-6.9-5.7c-0.9-1.5-1.9-2.8-3.2-3.9c-2.7-2.4-6-4.3-9.3-5.9c-6.9-3.5-14.7-5.5-22.5-4.6
			c-7.1,0.9-13.8,4.4-18.5,9.8c-5.4,6.2-6.3,15.1-8.2,22.9c-0.2,0.6,0.8,0.9,1,0.3c1.9-8,2.8-17.2,8.7-23.4c5.7-6,13.7-9.1,22-8.8
			c8.1,0.3,15.8,3.5,22.5,7.9c1.7,1.1,3.4,2.3,4.7,3.7c1.6,1.7,2.4,3.8,3.7,5.6c0.8,1.2,1.9,2.2,3.1,2.8c-1.3,0.3-2.6,0.8-3.8,1.4
			c-0.2-0.1-0.5-0.1-0.7,0.1c0,0,0,0-0.1-0.1c-6.4-3.2-11.2-8.6-17.1-12.5c-5.8-3.8-12.4-5.1-19.1-3.2c-13.9,3.8-22.1,18-19.1,31.9
			c-0.6-0.4-1.3-0.6-2-0.6c0.4-1.1,0.4-2.4,0.1-3.6c-0.1-0.3-0.3-0.4-0.5-0.3c-3.1-2.1-8.3,2.8-5.7,5.8c-2.1,0.7-3.8,2.2-4.6,4.3
			c-0.4,1-0.6,2.5,0,3.4c0.8,1.1,2.6,1,3.7,1c1.3,0,2.8,0,4-0.4c-2.9,5.5,4.6,9.7,8.7,11.8c7.2,3.6,15.1,6.9,23.1,7.9
			c7.9,1.1,15-1.2,21.7-5.4c6.4-4,10.5-10.5,14.1-17c2.1-3.8,3.2-7.8,3.5-12.1c0.4-5.1,0.4-10.5,4.4-14.3
			C329.9,405.9,329.5,405.3,329,405.4z M321.1,409.5c0.4-0.1,0.4-0.4,0.3-0.6c0,0,0,0,0,0c0.8-0.3,1.7-0.5,2.5-0.8
			c-1.4,1.8-2.1,4-2.8,6.2c-1.1,3.7-2.3,7.4-4,10.8c-3.4,7-8.5,12.6-15.6,15.9c-7.5,3.5-16,4-24.1,2.5c-4.1-0.8-8.2-2.1-12-3.8
			c-3.5-1.6-7.6-3.8-8.1-8c0.5,0.1,1,0.2,1.4,0c0.6-0.2,1-0.6,1.2-1.1c0.9,2.5,3,3.7,5.3,4.7c3.8,1.7,7.9,3,12,3.9
			c6.8,1.5,13.7,1.3,20.2-1.4c5.7-2.4,10.6-6.3,14.4-11.2c1.8-2.3,3.3-4.9,4.4-7.6c0.7-1.5,1.2-3.1,1.6-4.7
			C318.4,412.5,318.8,409.9,321.1,409.5z M315.1,410.6c1.4-0.7,2.8-1.2,4.3-1.6c-1.1,0.8-1.6,2.1-2,3.4c-0.9,3-1.7,6-3.2,8.8
			c-2.9,5.5-7.3,10.2-12.6,13.4c-5.6,3.4-12.1,5-18.7,4.4c-3.9-0.3-7.7-1.3-11.4-2.6c-3.5-1.2-9.1-2.5-10.5-6.4
			c-0.1-0.3-0.4-0.4-0.6-0.3c0.2-0.9,0.1-1.8-0.2-2.5c-0.1-0.2-0.2-0.4-0.3-0.5c0.1-0.1,0.1-0.2,0.2-0.3c10.3,6.9,23.1,9.5,35.2,6.6
			c5.6-1.4,11.3-3.9,15.1-8.5C313.5,420.6,315,415.6,315.1,410.6z M280.5,394.4c14.1-2.5,21.6,10,32.7,15.9
			c-0.1,0.1-0.1,0.2-0.2,0.2c0.1,0,0.2,0,0.3,0.1c-0.3,0.4,0.2,1,0.7,0.7c0,0,0,0,0.1,0c-0.3,4.9-1.9,9.7-5.3,13.5
			c-3.9,4.4-10,6.6-15.6,7.8c-11.5,2.3-23.4-0.5-32.9-7c-0.1-0.1-0.3-0.1-0.4-0.1C256.9,411.2,266.1,396.9,280.5,394.4z
			 M256.5,426.3c1.9-0.3,3.6,1.4,2.9,3.3c-0.4,1.3-1.7,1.2-2.7,0.6c-0.2-0.8-0.5-1.5-1-2.1c0.2-0.4,0.6-0.7,1.1-0.6
			c0.6,0.1,0.9-0.8,0.3-1c-0.3-0.1-0.5,0-0.7,0C256.4,426.4,256.4,426.3,256.5,426.3z M256,422.1C256.1,422.2,256.1,422.2,256,422.1
			c0.3,1.1,0.3,2.3-0.2,3.2c0,0,0,0,0,0c-0.3,0.1-0.4,0.3-0.3,0.6c-0.3,0.4-0.7,0.7-1.2,0.9c-0.5-0.2-1-0.3-1.5-0.4
			c-0.2,0-0.3,0.1-0.4,0.2c-0.1,0-0.2,0-0.3,0.1c0,0-0.1,0-0.1,0C249.3,424.9,253.7,420.4,256,422.1z M250.1,434.8
			c-0.5,0-0.9,0-1.4-0.1c-0.6-0.5-1.1-1.1-1.7-1.6c-0.2-0.8,0.6-2.2,1-2.8c0.9-1.4,2.3-2.2,3.9-2.6c0.7,0.3,1.5,0.4,2.3,0.2
			c0.2,0.1,0.3,0.2,0.5,0.4c0,0.3,0,0.5,0.1,0.8c0.2,0.6,0.6,1.2,1.2,1.7c0.2,1.1,0,2.2-0.7,2.9C254,435,251.7,434.8,250.1,434.8z
			 M324.6,415.1c-0.7,5.1-0.5,10-2.7,14.8c-3.7,8.2-9.2,15.9-17.1,20.3c-4.5,2.5-9.1,4.2-14.3,4.2c-4.8,0-9.5-1.1-14-2.6
			c-4.5-1.5-8.9-3.4-13.2-5.5c-3.9-1.9-11.7-5.8-7.8-11.3c0.1-0.1,0.1-0.3,0.1-0.4c0.5-0.4,0.9-1,1.1-1.8c1.6,6.1,10,8.6,15.3,10.3
			c8.3,2.5,17.2,3.1,25.5,0.5c7.4-2.3,13.7-6.8,18-13.3c2.2-3.4,3.8-7.2,5.2-11c1.4-4,2-9.1,5.3-11.9c0.1-0.1,0.1-0.2,0.1-0.2
			c0.6-0.1,1.1-0.2,1.7-0.4C325.9,409.1,325,412,324.6,415.1z"/>
		<path class="st5" d="M250.4,435.8c-1,3.2-0.4,6.7,1.2,9.6c1.7,2.9,4.4,5,7.5,6.4c1.4,0.6,2.9,1.1,4.2,2c0.7,0.5,1.3,1.2,1.9,1.8
			c6.4,6.1,16.2,6.5,25,6.4c2.7-0.1,5.5-0.1,8.1-0.8c2.6-0.7,4.9-1.9,7.2-3.2c9.5-5.8,17-15,20.8-25.5c3.1-8.7,3.9-18.4,8.8-26.3
			c-2.6-0.5-5.3-0.7-7.9-0.5"/>
		<path class="st5" d="M248.1,435.5c-2,6.1,0.3,12.9,4.5,17.8c4.1,4.9,9.8,8.2,15.4,11.2"/>
		<path class="st5" d="M336,406.8c-1-0.2-1.5,1.1-1.6,2.1c-0.3,2.8-0.1,5.7,0.6,8.5"/>
		<path class="st5" d="M335.8,407c1.4,0.2,2.9-0.1,4-1"/>
		<path class="st5" d="M250.5,422.3c-0.7-8.8-1-18.3,3.7-25.8c2.6-4.1,6.5-7.3,10.6-10.1c3.4-2.4,7.1-4.6,11.1-5.5
			c3.8-0.9,7.8-0.5,11.7,0c2.7,0.3,5.4,0.7,8,1.4c6,1.7,11.5,5.1,15.6,9.8c2.3,2.7,4.2,5.8,6.5,8.5s5.3,5.1,8.8,5.7"/>
		<path class="st5" d="M250.3,427.2c-2.5-3.6-4-8-4.3-12.4c-0.2-3.1,0.3-6.3,0.9-9.4c0.9-5.3,2.2-10.6,4.9-15.2
			c3.5-6,9.3-10.5,15.9-12.9c6.5-2.4,13.7-2.6,20.6-1.3c4.4,0.8,8.2,0.9,12.2,3.1c1.9,1,3.7,2,5.6,3.1c0.9,0.5,1.8,1,2.6,1.7
			c2.2,2,4.6,3.8,6.8,5.9c4,3.9,6.1,9.6,10.7,12.9c2.4,1.7,5.3,2.6,8.2,2.5"/>
		<path class="st5" d="M-101,793"/>
		<path class="st5" d="M247,428.8c-1.6-8.6-6.1-16.8-5.2-25.5c0.4-4.3,2.2-8.4,4.3-12.2c3.2-5.9,7.4-11.6,13.1-15.2
			c5.4-3.4,11.9-4.8,18.3-4.5s12.6,2,18.5,4.5c2.8,1.2,5.6,2.6,7.4,5"/>
		<path class="st5" d="M298.4,377.1c2.8,1.9,5.5,3.7,8.3,5.6"/>
		<path class="st5" d="M318.4,392.3c3.4,3.8,7.7,6.8,12.4,8.7c2.4,1,5.1,1.8,7,3.6c0.7,0.6,1.5,1.4,2.4,1.1"/>
		<path class="st5" d="M243.4,396c0.5-4.1,1.9-8,4.3-11.4c1.9-2.7,4.2-4.9,6.6-7.2c2-1.9,4.1-3.7,6.5-5.2c6-3.6,13.5-4.1,20.5-3
			c4.4,0.8,8.8,2.2,12.1,5.3"/>
	</g>
	<g id="flrscalp">
		<g>
			<g>
				<path class="st5" d="M252.4,329.1c11.2,7.7,22.5,15.5,32,25.4c4.7,4.9,9,10.4,12.7,16.1c2.8,4.3,5.1,9.1,9.6,11.8
					c0.6,0.3,1.1-0.5,0.5-0.9c-5.1-3.1-7.5-9.1-10.8-13.7c-3.8-5.4-7.9-10.6-12.6-15.3c-9.2-9.4-20.1-16.9-30.9-24.3
					C252.4,327.8,251.9,328.7,252.4,329.1L252.4,329.1z"/>
			</g>
		</g>
		<g>
			<g>
				<path class="st5" d="M236.9,349.1c2.9,0.7,5.2,4.4,7.1,6.6c2,2.3,4.3,4.5,5.8,7.1c3.4,5.8,0.3,13.2-1.1,19.3
					c-0.1,0.6,0.8,0.9,1,0.3c1.5-6.3,4.6-13.9,1-20c-1.7-3-4.3-5.5-6.6-8c-1.9-2.2-3.9-5.4-6.9-6.1C236.5,348,236.2,349,236.9,349.1
					L236.9,349.1z"/>
			</g>
		</g>
		<g>
			<g>
				<path class="st5" d="M235.6,347.4c0.9-1.8,2.1-2.5,3.4-2c0.4,0.1,0.7,0.2,1.1,0.4c0.7,0.3,1.4,0.6,2.1,1
					c1.3,0.8,2.6,1.7,3.7,2.6c2.1,1.8,4,3.9,5.7,6.1c3.8,4.7,8.3,9.9,8.5,16.1c0,0.6,1,0.6,1,0c-0.1-4.3-2.1-7.9-4.5-11.3
					c-2.5-3.5-5.2-7-8.2-10c-2.6-2.6-6.1-5.5-9.9-6.1c-2.2-0.4-5,1.1-3.7,3.6C235,348.5,235.8,348,235.6,347.4L235.6,347.4z"/>
			</g>
		</g>
		<g>
			<g>
				<path class="st5" d="M254.7,377c2.8-4.5,2.6-10.3-0.8-14.4c-1-1.3-2.3-2.4-3.2-3.8c-0.7-1.2-1-2.4-1.8-3.5c-2.5-3.3-6.1-6-9-8.8
					c-0.5-0.4-1.2,0.3-0.7,0.7c2.4,2.3,4.8,4.6,7.1,6.9c1.3,1.2,2.2,2.3,2.9,3.9c0.4,0.9,0.9,1.8,1.5,2.6c1.7,2.2,3.7,3.9,4.5,6.7
					c0.9,3.2,0.3,6.4-1.5,9.2C253.4,377,254.3,377.5,254.7,377L254.7,377z"/>
			</g>
		</g>
		<g>
			<g>
				<path class="st5" d="M256.1,361.6c4.3,3.5,9.6,4.5,14.1,7.4c0.5,0.4,1-0.5,0.5-0.9c-4.4-2.9-9.7-3.9-13.9-7.3
					C256.3,360.5,255.6,361.2,256.1,361.6L256.1,361.6z"/>
			</g>
		</g>
		<g>
			<g>
				<path class="st5" d="M237.7,344.4c0.6-1.7,0.6-3.3,0-5c-0.1,0.2-0.2,0.4-0.3,0.6c1.8-0.6,5.2,2.1,6.7,3c1.9,1.2,3.6,2.5,5.4,3.9
					c3.2,2.6,6.2,5.3,9.2,8.2c3,2.8,5.9,5.7,8.9,8.4c2.6,2.3,5.3,4.4,8.8,5.2c0.6,0.1,0.9-0.8,0.3-1c-4.7-1.1-8.1-4.6-11.4-7.8
					c-3.1-2.9-6.1-5.9-9.3-8.8c-2.9-2.7-6-5.3-9.3-7.6c-1.8-1.3-3.7-2.5-5.7-3.6c-1.2-0.7-2.4-1.5-3.8-1c-0.2,0.1-0.4,0.3-0.3,0.6
					c0.5,1.6,0.5,2.9,0,4.5C236.5,344.7,237.5,345,237.7,344.4L237.7,344.4z"/>
			</g>
		</g>
		<g>
			<g>
				<path class="st5" d="M236.9,338.3c-0.3-0.3-0.8-0.7-1-1.1c-0.4-0.7-0.5-0.2,0.1-0.9c1-1.1,2.7-0.9,4-0.5c2.1,0.7,3.9,2,5.7,3.2
					c4.4,3.1,8.9,6,13.1,9.5c4,3.3,7.7,7.1,10.5,11.5c1.2,1.8,1.7,3.2,3.8,4.2c2,1,3.7,2.1,5,4c0.3,0.5,1.2,0,0.9-0.5
					c-1-1.6-2.1-2.8-3.8-3.7c-1.4-0.7-2.7-1.1-3.7-2.4c-0.9-1.2-1.5-2.6-2.4-3.8c-3.1-4.5-7.1-8.2-11.4-11.6
					c-4.4-3.4-9.1-6.8-13.8-9.7c-2.9-1.8-7.1-3.6-9.2,0.1c-0.1,0.2-0.1,0.4,0.1,0.6c0.5,0.5,1.1,1.1,1.6,1.7
					C236.6,339.5,237.3,338.8,236.9,338.3L236.9,338.3z"/>
			</g>
		</g>
		<g>
			<g>
				<path class="st5" d="M234.9,333.8c9.6-5.3,18.9,6.9,25,12.8c8,7.7,16.1,15.2,23.8,23.1c0.5,0.5,1.2-0.2,0.7-0.7
					c-8.9-9-18.2-17.5-27.2-26.4c-5.9-5.8-14-14.5-22.9-9.7C233.9,333.2,234.4,334.1,234.9,333.8L234.9,333.8z"/>
			</g>
		</g>
		<g>
			<g>
				<path class="st5" d="M235.1,332.4c-1.3-1.3-2.4-2.7-3.3-4.4c-0.1,0.2-0.1,0.5-0.2,0.7c1.7-1.2,4,0.1,5.6,0.7
					c1.7,0.7,3.4,1.4,5.1,2.2c2.8,1.3,5.4,2.7,8.1,4.3c5.7,3.4,10.8,7.5,15.7,11.9c10.3,9.3,20.6,18.8,30.6,28.4
					c0.5,0.4,1.2-0.3,0.7-0.7c-11.2-10.6-22.4-21.4-34.1-31.4c-5.1-4.4-10.7-8.2-16.7-11.4c-2.7-1.5-5.5-2.8-8.4-3.9
					c-2.2-0.9-5-2.5-7.2-1c-0.2,0.2-0.3,0.4-0.2,0.7c0.9,1.8,2,3.2,3.4,4.6C234.9,333.5,235.6,332.8,235.1,332.4L235.1,332.4z"/>
			</g>
		</g>
		<g>
			<g>
				<path class="st5" d="M231.1,328.8c-1-0.4-2.7-1.5-2.9-2.8c-0.5-0.7-0.2-1.1,0.9-1.4c0.6,0,1.2-0.1,1.8-0.1c2,0,4.1,0.3,6,0.8
					c4,1,7.7,2.8,11.2,5c6.4,4,12,9.1,18.7,12.7c3.6,1.9,6.2,4.9,9,7.8c2.8,2.9,5.6,5.9,8.4,9c5.5,6.1,10.7,12.3,15.8,18.7
					c0.4,0.5,1.1-0.2,0.7-0.7c-5.3-6.7-10.7-13.2-16.4-19.4c-2.7-3-5.5-6-8.4-8.9c-2.6-2.7-5.2-5.4-8.5-7.3
					c-12.9-7-24-20.6-40.2-18.3c-0.2,0-0.4,0.3-0.4,0.5c0.2,2.6,1.6,4.5,4,5.5C231.4,330,231.7,329,231.1,328.8L231.1,328.8z"/>
			</g>
		</g>
		<g>
			<g>
				<path class="st5" d="M230.9,324.2c4.3-1.6,8.9-1.5,13,0.6c3.7,1.8,7.1,4.1,10.8,6c0.6,0.3,1.1-0.6,0.5-0.9
					c-4.1-2.1-8-5-12.3-6.7c-3.9-1.6-8.3-1.5-12.2,0C230,323.5,230.3,324.5,230.9,324.2L230.9,324.2z"/>
			</g>
		</g>
		<g>
			<g>
				<path class="st5" d="M244.6,324.7c7.7,1.4,14,6.5,20.4,10.8c6.4,4.3,11.3,9.7,16.5,15.3c0.4,0.5,1.1-0.2,0.7-0.7
					c-5.3-5.6-10.2-11.1-16.7-15.5c-6.4-4.3-12.9-9.4-20.6-10.9C244.2,323.6,244,324.6,244.6,324.7L244.6,324.7z"/>
			</g>
		</g>
		<g>
			<g>
				<path class="st5" d="M262.9,365.1c-0.3,0.1-0.3,0.2,0.1,0.3c0.1,0.2,0.3,0.3,0.3,0.5c0.2,0.4,0.4,0.9,0.7,1.3
					c0.4,0.9,0.9,1.7,1.3,2.6c0.3,0.6,1.2,0.1,0.9-0.5c-0.4-0.9-0.9-1.7-1.3-2.6c-0.3-0.6-0.6-1.4-1.1-1.9c-0.5-0.6-1.5-0.8-1.8,0.1
					C261.8,365.4,262.7,365.7,262.9,365.1L262.9,365.1z"/>
			</g>
		</g>
		<g>
			<g>
				<path class="st5" d="M241.1,351.7c-1.9-1.1-3.8-2.1-5.7-2.9c-0.5-0.2-2-0.5-2.3-1c-0.2-0.6-0.4-1.1-0.6-1.7c0.2,0,0.4,0,0.6,0
					c0.5-0.1,1.3,0,1.8,0.1c0.6,0,0.6-1,0-1c-1,0-2.8-0.5-3.7,0.3c-0.7,0.5-0.6,1.5-0.2,2.2c0.8,1.1,2.8,1.5,3.9,2
					c2,0.9,3.9,1.9,5.7,2.9C241.1,352.9,241.6,352.1,241.1,351.7L241.1,351.7z"/>
			</g>
		</g>
		<g>
			<g>
				<path class="st5" d="M234.6,333c-1,1.1-0.8,3,0.6,3.8c0.6,0.3,1.1-0.6,0.5-0.9c-0.8-0.4-1-1.5-0.4-2.2
					C235.8,333.2,235.1,332.5,234.6,333L234.6,333z"/>
			</g>
		</g>
		<g>
			<g>
				<path class="st5" d="M235.5,337.4c-0.2,1.3,0.4,2.7,1.6,3.3c0.6,0.3,1.1-0.6,0.5-0.9c-0.8-0.4-1.3-1.3-1.1-2.1
					C236.5,337,235.6,336.7,235.5,337.4L235.5,337.4z"/>
			</g>
		</g>
		<g>
			<g>
				<path class="st5" d="M238.4,342.5c7.4,1.4,11.2,7.7,16.2,12.7c2.4,2.3,5,4.5,7.7,6.5c2.8,2,5.9,3.7,7.5,7
					c0.3,0.6,1.1,0.1,0.9-0.5c-1.4-2.8-3.9-4.5-6.4-6.3c-3.4-2.4-6.6-5.1-9.6-8c-4.9-5-8.7-10.9-16-12.3
					C238.1,341.4,237.8,342.4,238.4,342.5L238.4,342.5z"/>
			</g>
		</g>
	</g>
	<g id="Layer_53">
		<path class="st5" d="M178.5,462.9c4.4,1.1,14.2,4.4,17.1-0.9"/>
		<path class="st5" d="M251.8,467.1c2.9-3.1,7.3-4.8,11.5-4.6"/>
		<path class="st5" d="M186.3,408.2c-0.2,0.1-0.3-0.2-0.2-0.4c0.2-0.1,0.4-0.1,0.6,0c1.9,0.8,3.8,1.7,5.2,3.2c1.2,1.2,2,2.8,2.8,4.3
			c1.3,2.4,2.5,4.7,3.8,7.1c1.3,2.5,2.6,5,3.1,7.7c0.2,0.9,0.2,1.9-0.1,2.8c-0.3,0.7-0.7,1.3-1.2,1.9c-1.2,1.5-2.5,3.1-4.1,4.2
			c-2.3,1.5-5.2,1.9-7.8,1"/>
		<path class="st5" d="M240.7,408.9c-0.9,1.6-1.8,3.3-2.7,4.9c-1.3,2.4-2.6,4.9-2.6,7.6c0.1,3.9,3,7.1,3.9,10.9
			c0.2,0.7,0.3,1.5,0.7,2.1c1.1,1.7,3.7,1.6,5.2,2.9"/>
		<path class="st5" d="M186.9,413.6c-0.1,0.2-0.4,0.1-0.4-0.1s0.2-0.3,0.3-0.4c1.6-1.1,3.3-2,5.1-2.8"/>
		<path class="st5" d="M186.9,421.9c1.3-3.5,3.8-6.5,6.9-8.5"/>
		<path class="st5" d="M184.7,445.8c1.1-1.3,2.2-2.6,3.1-4c2.1-3.5,2.5-7.6,3.3-11.6s2.4-8.1,5.9-10.1"/>
		<path class="st5" d="M192.9,425.4c0.8,1.8,1.7,3.7,2.5,5.5c0.9,1.9,2.2,4.1,4.3,4.2"/>
		<path class="st5" d="M192.3,428c-0.2-0.2,0.2-0.4,0.4-0.3c0.2,0.1,0.2,0.4,0.2,0.6c0.1,3.7,1.5,7.4,3.8,10.3"/>
		<path class="st5" d="M191.7,432c-0.2-0.2-0.4-0.4-0.6-0.6c1.3,2.7,2,5.6,2,8.6"/>
		<path class="st5" d="M183.7,442.4c1.7-2.6,1.8-6,2.4-9.1c1-5.2,3.5-10.1,7.3-13.9"/>
		<path class="st5" d="M237.3,417.1c3.3,2.2,5,0.9,7.5,4.9"/>
		<path class="st5" d="M244.4,422.6c-0.5,4.5-1.6,8.9-3.2,13.1"/>
		<path class="st5" d="M242.3,435.6c1.9-2.1,3.5-4.4,4.7-7"/>
		<path class="st5" d="M239.7,412.5c-0.2,0.1-0.3-0.2-0.2-0.3c0.1-0.1,0.4-0.1,0.6,0c1,0.3,1.9,0.8,2.7,1.5"/>
		<path class="st5" d="M208.1,338.1c0.3,0.1-0.1-0.4-0.3-0.1s0.1,0.6,0.1,0.9c-0.4,1.6-0.9,3.3-1.4,4.9c-0.2,0.5-0.4,1-0.8,1.3
			s-1.2,0.2-1.3-0.3c-0.2-0.7-1.1-0.8-1.7-0.5c-0.6,0.3-1.1,0.9-1.6,1.3c-1.6,1.4-4.4,1.1-5.7-0.6c-0.6,3-1.3,6-1.9,9
			c-2.3-2.4-4-5.3-4.9-8.5c-1,2.3-3.1,4.1-5.5,4.9c0.4-0.7,0.5-1.6,0.3-2.4c-0.6,0-1.2,0-1.8,0c-0.7,1.4-1.8,2.5-3.2,3.2
			c-0.3-0.7-0.3-1.5,0.1-2.2c-0.8,1-2.1,1.5-3.3,1.4"/>
		<path class="st5" d="M208.5,338.4c0.4,0.9,0.9,1.8,1.4,2.6c0.5,0.8,1.3,1.7,2.1,1.3c0.6-0.3,0.7-1,1-1.5c0.3-0.5,1-1,1.5-0.6
			c0.1,0.1,0.2,0.4,0.3,0.5c0.3,0.9,0.9,1.8,1.8,2s2.1-0.2,2.3-1.1c0.1,1.4-0.1,2.9-0.6,4.2c1.2-0.1,2.5-0.3,3.6-0.8
			c0,0.8,0,1.6,0,2.4c0,0.2,0,0.5,0.2,0.7c0.3,0.3,0.8,0,1.1-0.3c0.7-0.7,1.3-1.5,1.8-2.3c0.5,0.9,1.7,1.3,2.6,0.9
			c0.9-0.4,1.5-1.5,1.2-2.5c1.3,0.4,2.6,0.8,3.9,1.1"/>
		<path class="st5" d="M182.3,398.1c5.9,2.5,11.4,6.3,15.8,11c1.3,1.4,2.5,2.9,3.4,4.6c1,2,1.5,4.3,1.9,6.5c0.6,3.2,1.3,6.5,0.7,9.7
			c-0.8,4.1-3.6,7.7-7.4,9.4c-0.3,0.1-0.6,0.3-0.9,0.1s-0.3-0.7,0-0.7"/>
		<path class="st5" d="M240.7,435.9c-1.8-0.1-3.4-1.3-4.4-2.8s-1.6-3.2-2.1-4.9c-1-3.4-2-6.9-1.9-10.5c0.3-7,4.9-13,9.6-18.1"/>
		<path class="st5" d="M238.4,414.7c1.6,0.7,3.1,1.6,4.5,2.7"/>
		<path class="st5" d="M211.4,342.4c3.2,8.9,1,18.9,2.5,28.3c1.3,8.3,5.5,16.4,4.2,24.7c-0.3,2.2-1,4.3-0.7,6.5
			c0.2,1.5,0.8,2.9,1.3,4.4c3,8.4,1.8,17.6,0.6,26.4"/>
		<path class="st5" d="M193.9,463.7c8.3-4.8,12.3-13.6,22.2-15.9c8.9-2.1,21.4-0.5,28.3,6c3.7,3.6,5.3,8.7,7,13.4"/>
		<path class="st5" d="M185.7,445.1c5.7,1.8,12.1,1.2,17.3-1.8c6.9-3.9,12.2-11.7,20.1-11.8c8.1,0,14.5,8.4,22.5,7.8"/>
		<path class="st5" d="M208.7,440.3c4.4-1.8,8.8-3.7,13.4-4.4c4.7-0.7,9.7-0.2,13.6,2.5c3.8,2.5,6.5,7,11,7.8"/>
		<path class="st5" d="M183.7,451.3c9.1-0.4,18.2-3.5,25.6-8.8c1.5-1.1,2.9-2.2,4.4-3.2c2-1.3,4.3-2.1,6.6-2.6"/>
		<path class="st5" d="M183.4,453c-0.1,1.6,2,2.5,3.6,2.5c4.8,0.1,9.2-2.3,13.1-4.9c3.9-2.7,7.7-5.7,12.1-7.5
			c6.3-2.5,13.6-1.9,19.5,1.5"/>
		<path class="st5" d="M180.4,457.8c3.5,1.9,7.9,1.6,11.6,0.2c3.7-1.4,7-3.9,10.2-6.3c8.1-6.2,16.3-10.6,26.6-8.7"/>
		<path class="st5" d="M227,441.4c0.2,0.2-0.4,0.2-0.3,0s0.4-0.2,0.6-0.2c4.3,0.7,8.8,1.4,12.5,3.6c1.8,1,3.3,2.4,4.9,3.7
			c2.7,2.1,5.5,4,8.5,5.6"/>
		<path class="st5" d="M259.7,460.3c-2.7-0.9-5.4-2-7.9-3.4c-1.1-0.6-2.3-1.3-3.2-2.1c-0.9-0.7-1.6-1.6-2.4-2.4
			c-3.9-3.9-9-6.3-14.1-8.3"/>
		<path class="st5" d="M216.8,441.4c0.1-0.4,0.5-0.5,0.9-0.6c4.1-1.2,8.6-2.5,12.6-1c2.2,0.8,4,2.3,6,3.4"/>
		<path class="st5" d="M234.4,435.2c-5.3-6.8-6.3-16.6-2.7-24.4c3.3-7,9.9-12.2,12.4-19.5"/>
		<path class="st5" d="M231,432.6c-4.4-3.5-5.8-9.8-4.8-15.3c1-5.5,3.9-10.5,7.1-15.2c4.1-6.1,8.6-12,12-18.6
			c3.4-6.5,5.7-13.9,4.9-21.3"/>
		<path class="st5" d="M227.2,431.6c-5.9-7-4.7-17.6-1.2-26c1.2-3,2.7-5.8,4.5-8.6c3.8-6,8.7-11.2,12.5-17.2
			c3.8-6,6.5-13.2,5.2-20.1"/>
		<path class="st5" d="M213.1,341.8c6.4,7.7,4.8,18.8,6.3,28.7c0.6,4,1.7,7.9,2.4,11.9c0.8,5,0.8,10.1,0.8,15.2
			c0,11.1-0.1,22.2-0.1,33.3"/>
		<path class="st5" d="M223.5,412.4c0.5-10.1,6.4-19.1,11.9-27.6c5.5-8.5,10.9-18,10.3-28.1"/>
		<path class="st5" d="M222.4,405.4c4.4-10.9,9.2-21.6,14.3-32.2c3.3-6.9,6.8-14.7,4-21.8"/>
		<path class="st5" d="M218.9,358c1.1,4.9,3.1,9.7,5.7,14.1c1,1.6,2,3.2,2.8,4.9c1.8,4.1,1.8,8.8,0.7,13.1
			c-1.1,4.3-3.2,8.3-5.5,12.2"/>
		<path class="st5" d="M206.8,343.4c-1.6,9.2,2.9,18.2,3.7,27.5c0.4,5-0.3,10,0.7,14.9c0.6,2.8,1.7,5.5,2.3,8.4
			c0.3,1.8,0.5,3.5,0.6,5.3c0.8,11.3,1.5,22.5,2.3,33.8"/>
		<path class="st5" d="M206.7,354.8c-3.1,12.2-6.4,27.7-0.7,39.7c2.7,5.7,5.8,11.3,8.7,16.9"/>
		<path class="st5" d="M202.6,345c0,5.6,0.6,11.2,1.9,16.7"/>
		<path class="st5" d="M218.1,345.4c3.5,7.1,5.2,15,5,22.9"/>
		<path class="st5" d="M225.8,346.6c1,8.9,2.1,18.2-0.6,26.8"/>
		<path class="st5" d="M227.4,375.6c0.6-1.4,1.1-2.7,1.7-4.1c0.8-2,1.7-4,2.2-6c1.3-4.6,1.4-9.4,1.5-14.1c0-1.2,0.1-2.6-0.6-3.6"/>
		<path class="st5" d="M229.5,379.7c-0.1,0.3-0.5,0.1-0.5-0.1s0.2-0.5,0.4-0.7c3.7-3.5,6-8.3,7.3-13.2c1.4-4.9,1.8-10,2.3-15.1"/>
		<path class="st5" d="M200.4,346.3c-1.9,5.4-2.1,11.5-0.5,17c0.3,1.1,0.7,2.2,1,3.3c0.9,3.3,0.7,6.8,1.4,10.1"/>
		<path class="st5" d="M197.9,347.6c-1.6,1.3-1.9,3.5-2,5.4c-0.7,12.3,3.6,24.2,8.1,35.6"/>
		<path class="st5" d="M208.7,436.6c14.8-19.1-6.8-41.1-12.5-59.3c-2.5-7.9-3.3-16.3-4-24.6"/>
		<path class="st5" d="M212,435.3c2.1-2.2,3.4-5,3.7-8"/>
		<path class="st5" d="M184.7,402.7c-0.3-0.2-0.6-0.4-0.9-0.6c3.7,0.4,6.8,2.9,9.3,5.5c6.2,6.6,10.3,15.7,9.3,24.7"/>
		<path class="st5" d="M199,439.6c4.5-4.1,7.4-10,7.7-16.1c0.3-6.1-1.9-12.3-5.9-16.8c-6.7-7.5-17.7-10-24.3-17.6"/>
		<path class="st5" d="M162.7,368.9c6.6,10.6,17.5,17.1,27.4,24.1c9.1,6.4,18.6,15.1,19.3,27c0.4,7-2.3,14.1-7.1,19.3"/>
		<path class="st5" d="M213.2,435.6c-10.2,0.4-16.2,10.4-26.7,7"/>
		<path class="st5" d="M197.1,441.7c1-1,1.9-2,2.9-3.1"/>
		<path class="st5" d="M195.1,375.5c-0.8-2-2.2-3.6-3.5-5.4c-4.2-5.7-6.7-12.7-7.1-19.8"/>
		<path class="st5" d="M198.7,383.8c-6.3-5.4-11.7-11.8-16.2-18.8c-2.9-4.5-5.4-9.6-4.9-14.9"/>
		<path class="st5" d="M172.5,351.9c1.9,9.8,7.3,18.7,14.8,25.2c8.6,7.5,14.9,16.1,20.9,25.8"/>
		<path class="st5" d="M168.5,356.2C167,360,170,363,171,366c1,1,2,3,3,5c4,8,11,13,18,19c11,8,20,20,21.1,33.6"/>
		<path class="st5" d="M165,362.7c1.4,3.8,3.4,7.3,5.9,10.5c0.8,1,1.6,1.9,2.3,2.8c0.9,1,1.7,2,2.6,3c0.6,0.7,1.3,1.5,2.1,1.9"/>
		<path class="st5" d="M260.5,461.8"/>
		<path class="st5" d="M262.5,460.5"/>
		<path class="st5" d="M284.7,440.7"/>
		<path class="st5" d="M181.1,469.1c3.7-1.4,7.5-2.7,11.2-4.1c1.9-0.7,3.7-1.4,5.4-2.4c3.6-2.2,6.1-5.7,9.3-8.6
			c3.1-2.8,6.8-4.9,10.8-6.1"/>
		<path class="st5" d="M261,462.4c-4-0.5-11.2-1.5-12.8-5.7c0-0.1-0.1-0.1-0.1-0.2c-0.2-0.8-0.9-1.4-1.8-1.3c-0.6,0-0.6,1,0,1
			c0.4,0,0.8,0.2,0.8,0.7c0,0.2,0.1,0.3,0.2,0.4c2,4.7,9.2,5.7,13.6,6.2C261.6,463.5,261.6,462.5,261,462.4z"/>
	</g>
	<g id="flchin">
		<g>
			<g>
				<path class="st5" d="M172.9,552.7c4.2,1.6,8.3,2.2,11.7-1.2c1.3-1.3,2.2-3,2.8-4.8c0.5-1.4,0.8-7.9,2.4-8.1c0.6-0.1,0.6-1.1,0-1
					c-1.1,0.2-1.8,0.6-2.2,1.7c-0.7,2-0.4,4.3-1,6.3c-0.7,2.5-2.1,5-4.4,6.4c-3,1.8-6.1,0.8-9.1-0.3
					C172.6,551.5,172.3,552.5,172.9,552.7L172.9,552.7z"/>
			</g>
		</g>
		<g>
			<g>
				<path class="st5" d="M179.5,554.2c0,0.2,2.4,0.5,2.7,0.5c0.8,0,1.6-0.2,2.3-0.5c1.9-0.8,3.4-2.4,4.3-4.2
					c1.2-2.2,1.8-4.6,2.8-6.9c1.5-3.5,3.9-5.6,7-7.7c0.5-0.4,0-1.2-0.5-0.9c-2.1,1.4-4.3,2.9-5.7,5c-1.7,2.4-2.4,5.3-3.4,7.9
					c-1.6,3.9-4.1,6.7-8.6,5.9c-0.9-0.2-1.7-0.3-1.8,0.9C178.5,554.8,179.5,554.8,179.5,554.2L179.5,554.2z"/>
			</g>
		</g>
		<g>
			<g>
				<path class="st5" d="M185.3,554c0.1,2.1,1.8,1.6,2.8,0.5c2.8-3.1,6.9-4.7,9.5-7.9c2-2.5,4.3-6.5,4.7-9.7c0.4-2.7-1.9-3.2-4-2.5
					c-0.6,0.2-0.4,1.2,0.3,1c4.8-1.5,1.2,5.8,0.6,6.9c-1,2-2.2,3.9-3.9,5.3c-1.6,1.4-3.5,2.4-5.2,3.6c-0.6,0.5-1.3,1-1.8,1.5
					c-0.1,0.1-1.9,2.3-2,1.2C186.2,553.4,185.2,553.4,185.3,554L185.3,554z"/>
			</g>
		</g>
		<g>
			<g>
				<path class="st5" d="M205.7,536.4c-0.3,4.9-3.1,9-5.7,13c-1.4,2.1-2.7,5.1-4.9,6.3c-1,0.6-3.3,1.3-4.4,1.1
					c-1.4-0.2-2.6-1.7-3.6-2.6c-0.5-0.4-1.2,0.3-0.7,0.7c2.2,1.9,3.1,3.2,6.1,2.6c2.9-0.5,4.5-1.8,6.2-4.2c3.5-5.1,7.8-10.6,8.2-17
					C206.7,535.7,205.7,535.7,205.7,536.4L205.7,536.4z"/>
			</g>
		</g>
		<g>
			<g>
				<path class="st5" d="M195.3,557.4c0.1-0.5,3.2,0.5,3.8,0.5c0.9,0,1.8-0.4,2.5-0.9c2.1-1.5,3.3-4.3,4.4-6.5
					c3-6.3,6.9-11.3,12.3-15.8c0.5-0.4-0.2-1.1-0.7-0.7c-5.2,4.3-9.2,9.1-12.1,15.2c-0.8,1.6-1.5,3.3-2.5,4.8
					c-0.6,0.9-1.2,1.8-2.2,2.4c-1.4,0.8-2.6,0.2-4-0.2c-1.3-0.4-2.4-0.3-2.5,1.3C194.2,558,195.2,558,195.3,557.4L195.3,557.4z"/>
			</g>
		</g>
		<g>
			<g>
				<path class="st5" d="M203.8,545.3c3.2-3,6.1-6.4,8.7-10c0.4-0.5-0.5-1-0.9-0.5c-2.5,3.5-5.4,6.8-8.5,9.8
					C202.6,545.1,203.3,545.8,203.8,545.3L203.8,545.3z"/>
			</g>
		</g>
		<g>
			<g>
				<path class="st5" d="M195,539c0-0.2-0.1-0.5-0.1-0.7c-0.1-0.5-0.9-0.5-1,0c-0.7,3.1,0.1,6.3,2.2,8.7c0.4,0.5,1.1-0.2,0.7-0.7
					c-1.9-2.1-2.6-5-1.9-7.7c-0.3,0-0.6,0-1,0c0,0.2,0.1,0.5,0.1,0.7C194.2,539.9,195.1,539.6,195,539L195,539z"/>
			</g>
		</g>
		<g>
			<g>
				<path class="st5" d="M213.1,539.6c5,2.7,8.5,7.3,12.8,10.9c0.5,0.4,1.2-0.3,0.7-0.7c-4.4-3.6-7.9-8.3-13-11.1
					C213.1,538.4,212.6,539.3,213.1,539.6L213.1,539.6z"/>
			</g>
		</g>
		<g>
			<g>
				<path class="st5" d="M204.8,553.4c0.1,0,5.4-5.3,5.9-5.7c2.3-1.9,4.7-3.6,7.3-5.2c0.6-0.3,0-1.2-0.5-0.9
					c-1.6,1-15.8,11-13.2,12.6C204.9,554.6,205.4,553.8,204.8,553.4L204.8,553.4z"/>
			</g>
		</g>
		<g>
			<g>
				<path class="st5" d="M215.7,537.9c-0.1-0.3-0.2-0.6-0.2-0.9c-0.3,0.2-0.6,0.3-0.8,0.5c4.4,3.8,9,7.5,13.6,11
					c0.5,0.4,1-0.5,0.5-0.9c-4.6-3.5-9.1-7.1-13.4-10.8c-0.4-0.3-1,0-0.8,0.5c0.1,0.3,0.2,0.6,0.2,0.9
					C214.9,538.8,215.8,538.5,215.7,537.9L215.7,537.9z"/>
			</g>
		</g>
		<g>
			<g>
				<path class="st5" d="M220.2,547.5c0.1-1.1,0.3-2.2,0.4-3.2c0.1-0.6-0.9-0.6-1,0c-0.1,1.1-0.3,2.2-0.4,3.2
					C219.1,548.1,220.1,548.1,220.2,547.5L220.2,547.5z"/>
			</g>
		</g>
		<g>
			<g>
				<path class="st5" d="M216.2,547.2c0.7-1.4,1.4-2.9,2.1-4.3c0.3-0.6-0.6-1.1-0.9-0.5c-0.7,1.4-1.4,2.9-2.1,4.3
					C215,547.3,215.9,547.8,216.2,547.2L216.2,547.2z"/>
			</g>
		</g>
		<g>
			<g>
				<path class="st5" d="M212.7,548.5c-0.1-1.1,0.4-2.1,1.3-2.8c0.5-0.4,0-1.2-0.5-0.9c-1.2,0.8-1.9,2.2-1.8,3.6
					C211.8,549.1,212.8,549.1,212.7,548.5L212.7,548.5z"/>
			</g>
		</g>
		<g>
			<g>
				<path class="st5" d="M217.2,536.8c2.9,1.3,4.4,3.4,6.6,5.6c0.9,1,2.3,1.3,3.2,2.3c0.6,0.6,0.8,1.2,1.5,1.7
					c0.5,0.4,1-0.5,0.5-0.9c-0.9-0.6-1.2-1.7-2.1-2.3c-1.2-0.9-2.3-1.4-3.4-2.6c-1.6-2.1-3.5-3.6-5.9-4.7
					C217.1,535.7,216.6,536.5,217.2,536.8L217.2,536.8z"/>
			</g>
		</g>
		<g>
			<g>
				<path class="st5" d="M221.6,534.6c0,0,4.6,5.8,4.8,6.2c1.4,2,2.5,4.2,3.6,6.4c0.3,0.6,1.1,0.1,0.9-0.5c-1.3-2.8-2.9-5.6-4.8-8.1
					c-1.2-1.6-2.7-4.2-4.5-5c-0.2-0.1-0.4,0-0.5,0.1c-0.1,0.1-0.1,0.1-0.2,0.2C220.5,534.3,221.2,535,221.6,534.6L221.6,534.6z"/>
			</g>
		</g>
		<g>
			<g>
				<path class="st5" d="M226.8,539.5c0.6,0,0.6-1,0-1C226.1,538.5,226.1,539.5,226.8,539.5L226.8,539.5z"/>
			</g>
		</g>
		<g>
			<g>
				<path class="st5" d="M227.1,538.6c-0.2-0.2-0.5-0.5-0.7-0.7c-0.1,0.3-0.2,0.6-0.4,0.9c2.1,0.1,4.2,0.2,6.2,0.3c0.6,0,0.6-1,0-1
					c-2.1-0.1-4.2-0.2-6.2-0.3c-0.4,0-0.7,0.6-0.4,0.9c0.2,0.2,0.5,0.5,0.7,0.7C226.9,539.8,227.6,539.1,227.1,538.6L227.1,538.6z"
					/>
			</g>
		</g>
		<g>
			<g>
				<path class="st5" d="M229.9,542.6c2.6-3.1,4.6-6.5,6.2-10.1c0.3-0.6-0.6-1.1-0.9-0.5c-1.6,3.6-3.6,6.9-6.1,9.9
					C228.8,542.4,229.5,543.1,229.9,542.6L229.9,542.6z"/>
			</g>
		</g>
		<g>
			<g>
				<path class="st5" d="M225,532.8c-0.1,0-0.2-0.1-0.3-0.1c-0.4-0.4-1.1,0.1-0.8,0.6c0.8,1.6,1.5,3.2,2,4.9c0.2,0.6,1.1,0.4,1-0.3
					c-0.5-1.8-1.2-3.5-2.1-5.1c-0.3,0.2-0.5,0.4-0.8,0.6c0.3,0.3,0.6,0.4,1,0.4C225.6,533.7,225.6,532.7,225,532.8L225,532.8z"/>
			</g>
		</g>
		<g>
			<g>
				<path class="st5" d="M228.3,531.9c0.8,2,1.3,4.2,1.3,6.4c0,0.6,1,0.6,1,0c0-2.3-0.4-4.5-1.3-6.6
					C229,531,228.1,531.3,228.3,531.9L228.3,531.9z"/>
			</g>
		</g>
		<g>
			<g>
				<path class="st5" d="M233,532c0,0.9,0.3,1.8,0.8,2.5c0.4,0.5,1.2,0,0.9-0.5c-0.4-0.6-0.6-1.3-0.6-2C234,531.4,233,531.4,233,532
					L233,532z"/>
			</g>
		</g>
		<g>
			<g>
				<path class="st5" d="M226.3,533.8c0.7,1.5,1.2,3,1.5,4.6c0.1,0.6,1.1,0.4,1-0.3c-0.3-1.7-0.9-3.3-1.6-4.9
					C226.9,532.7,226,533.2,226.3,533.8L226.3,533.8z"/>
			</g>
		</g>
		<g>
			<g>
				<path class="st5" d="M232.5,537.7c0.1-2.1,0-4.3-0.3-6.4c-0.1-0.6-1.1-0.4-1,0.3c0.3,2,0.4,4.1,0.2,6.1
					C231.4,538.4,232.4,538.4,232.5,537.7L232.5,537.7z"/>
			</g>
		</g>
		<g>
			<g>
				<path class="st5" d="M230.5,545.1c-0.3-1.7,0.2-3.4,1.4-4.7c0.4-0.5-0.3-1.2-0.7-0.7c-1.5,1.5-2.1,3.6-1.7,5.6
					C229.7,546,230.7,545.7,230.5,545.1L230.5,545.1z"/>
			</g>
		</g>
		<g>
			<g>
				<path class="st5" d="M238.5,534.1c0-0.1,0-0.1,0-0.2c-0.3-0.1-0.6-0.2-1-0.3c-0.4,2-2.3,3.4-3.3,5.1c-1,1.7-1.7,3.4-2.1,5.3
					c-0.1,0.6,0.8,0.9,1,0.3c0.5-2.3,1.4-4.5,2.9-6.4c1-1.3,2.2-2.4,2.5-4c0.1-0.6-0.8-0.9-1-0.3c0,0.1,0,0.1,0,0.2
					C237.4,534.5,238.3,534.8,238.5,534.1L238.5,534.1z"/>
			</g>
		</g>
		<g>
			<g>
				<path class="st5" d="M239.9,533.8c-0.6,3.7-4.7,5.5-5.8,9c-0.2,0.6,0.8,0.9,1,0.3c1.1-3.5,5.2-5.2,5.8-9
					C241,533.5,240,533.2,239.9,533.8L239.9,533.8z"/>
			</g>
		</g>
		<g>
			<g>
				<path class="st5" d="M234.1,549.2c1.7-6.3,8.9-8.7,10.7-15c0.2-0.6-0.8-0.9-1-0.3c-1.8,6.3-9,8.7-10.7,15
					C233,549.5,234,549.8,234.1,549.2L234.1,549.2z"/>
			</g>
		</g>
		<g>
			<g>
				<path class="st5" d="M263.4,530.6c12.6,0.5,22.7-8.5,26.6-20.1c1.9-5.7,2.3-12,0.8-17.8c-2-7.8-7.3-14.2-13.4-19.2
					c-0.5-0.4-1.2,0.3-0.7,0.7c5.8,4.8,10.9,10.8,13,18.2c1.6,5.6,1.3,11.7-0.5,17.3c-3.6,11.4-13.4,20.4-25.8,19.9
					C262.8,529.5,262.8,530.5,263.4,530.6L263.4,530.6z"/>
			</g>
		</g>
		<g>
			<g>
				<path class="st5" d="M278.3,474.5c-3.1-2.2-5.7-4.9-8.5-7.4c-1.1-1-2.2-2-3.4-2.8c-0.9-0.7-3.8-3.2-4.9-2.7
					c0.6-0.2,0.3-1.2-0.3-1c-0.6,0.2-0.8,0.6-0.5,1.2c0.3,0.7,1.7,1,2.3,1.4c1.3,0.8,2.5,1.6,3.7,2.6c3.8,3.1,7.1,6.7,11.1,9.6
					C278.3,475.7,278.8,474.8,278.3,474.5L278.3,474.5z"/>
			</g>
		</g>
		<g>
			<g>
				<path class="st5" d="M243.2,537.8c2.8,2.6,5.6,5.3,8.7,7.5c1.8,1.3,3.8,2.5,5.6,3.9c1.3,1,2.4,2.1,3.8,2.9
					c4.6,2.9,10.6,0.6,10.9-5.2c0-0.6-1-0.6-1,0c-0.2,3.5-3.6,6.4-7.1,5.4c-2.6-0.8-4.4-2.8-6.5-4.4c-2.3-1.7-4.8-3.2-7.1-5
					c-2.3-1.8-4.4-3.8-6.5-5.8C243.5,536.7,242.7,537.4,243.2,537.8L243.2,537.8z"/>
			</g>
		</g>
		<g>
			<g>
				<path class="st5" d="M240.9,540.8c3,1,6,2.1,9,3.1c0.6,0.2,0.9-0.8,0.3-1c-3-1-6-2.1-9-3.1C240.5,539.6,240.3,540.5,240.9,540.8
					L240.9,540.8z"/>
			</g>
		</g>
		<g>
			<g>
				<path class="st5" d="M241.8,540.7c-1.2,0.6-1.2,2.4-0.1,3.1c0.5,0.4,1-0.5,0.5-0.9c-0.5-0.3-0.4-1.2,0.1-1.4
					C242.9,541.3,242.4,540.4,241.8,540.7L241.8,540.7z"/>
			</g>
		</g>
		<g>
			<g>
				<path class="st5" d="M246.2,542.7c0,0.4,0,0.9,0,1.3c0,0.3,0.2,0.5,0.5,0.5c0.3,0,0.6,0,0.9,0.1c0.6,0,0.6-1,0-1
					c-0.3,0-0.6,0-0.9-0.1c0.2,0.2,0.3,0.3,0.5,0.5c0-0.4,0-0.9,0-1.3C247.1,542,246.1,542,246.2,542.7L246.2,542.7z"/>
			</g>
		</g>
		<g>
			<g>
				<path class="st5" d="M237.2,543.7c-0.1,1,0.2,1.9,0.8,2.7c0.4,0.5,1.1-0.2,0.7-0.7c-0.5-0.6-0.6-1.2-0.6-2
					C238.2,543,237.2,543,237.2,543.7L237.2,543.7z"/>
			</g>
		</g>
		<g>
			<g>
				<path class="st5" d="M248.3,535.4c6.6,5.4,13.8,13.2,23.1,12.1c0.6-0.1,0.6-1.1,0-1c-9,1.1-15.9-6.6-22.4-11.8
					C248.5,534.3,247.8,535,248.3,535.4L248.3,535.4z"/>
			</g>
		</g>
		<g>
			<g>
				<path class="st5" d="M254.1,534c-0.2-0.3-0.4-0.6-0.6-0.8c-0.3-0.5-1-0.2-0.9,0.4c0.7,3.3,2.2,6.2,4.3,8.8
					c0.4,0.5,1.1-0.2,0.7-0.7c-2-2.4-3.4-5.2-4.1-8.4c-0.3,0.1-0.6,0.3-0.9,0.4c0.2,0.3,0.4,0.6,0.6,0.8
					C253.6,535.1,254.5,534.6,254.1,534L254.1,534z"/>
			</g>
		</g>
		<g>
			<g>
				<path class="st5" d="M256.6,532.6c-0.3,7.9,8.3,13.5,15.4,13.6c0.6,0,0.6-1,0-1c-6.6-0.1-14.7-5.3-14.4-12.6
					C257.6,532,256.6,532,256.6,532.6L256.6,532.6z"/>
			</g>
		</g>
		<g>
			<g>
				<path class="st5" d="M271.2,544.8c-2.6-2.5-4.5-5.7-7.3-8c-1-0.8-2-1.6-3.2-2.1c-0.6-0.3-1.3-0.5-1.9-0.6
					c-0.2,0-0.3-0.1-0.5-0.1c-0.6-0.3-1-0.1-1.1,0.5c0.6,0,0.6-1,0-1c-0.1,0-0.1,0-0.2,0c-0.2,0-0.4,0.2-0.5,0.4
					c0,0.1,0,0.2-0.1,0.3c-0.1,0.2,0,0.4,0.2,0.6c0.7,0.5,1.8,0.3,2.6,0.5c1.9,0.5,3.5,1.7,4.8,3c2.3,2.2,4.1,5,6.4,7.2
					C271,545.9,271.7,545.2,271.2,544.8L271.2,544.8z"/>
			</g>
		</g>
		<g>
			<g>
				<path class="st5" d="M260.7,531.7c3.9-1.7,7.7,5.2,9.5,7.5c1,1.2,2,2.3,3.3,3.1c0.6,0.3,1.1,0.5,1.7,0.8
					c5.3,2.4-2.9,5.6-2.7,2.6c0-0.6-1-0.6-1,0c-0.4,5.4,11.2,0.2,4.7-3.2c-2-1.1-3.6-1.9-5.1-3.7c-1.3-1.6-2.3-3.3-3.7-4.9
					c-1.7-1.9-4.6-4.3-7.3-3.1C259.6,531.1,260.1,531.9,260.7,531.7L260.7,531.7z"/>
			</g>
		</g>
		<g>
			<g>
				<path class="st5" d="M264.5,542.8c0.3-1.6,0.4-3.2,0.3-4.8c0-0.6-1-0.6-1,0c0.1,1.5,0,3-0.3,4.5
					C263.4,543.2,264.4,543.4,264.5,542.8L264.5,542.8z"/>
			</g>
		</g>
		<g>
			<g>
				<path class="st5" d="M268.7,530.3c-0.4,3.1,0.3,6.2,2,8.9c0.3,0.5,1.2,0,0.9-0.5c-1.6-2.6-2.2-5.4-1.9-8.4
					C269.7,529.7,268.7,529.7,268.7,530.3L268.7,530.3z"/>
			</g>
		</g>
		<g>
			<g>
				<path class="st5" d="M276.1,537.7c1.6,1.8,5.5,4.3,1.6,6c-0.6,0.3-0.1,1.1,0.5,0.9c1.8-0.8,2.9-2.2,1.9-4.1
					c-0.8-1.5-2.2-2.3-3.2-3.5C276.4,536.5,275.7,537.2,276.1,537.7L276.1,537.7z"/>
			</g>
		</g>
		<g>
			<g>
				<path class="st5" d="M271,529.9c1,2.6,2.5,4.9,4.3,7c0.4,0.5,1.1-0.2,0.7-0.7c-1.7-1.9-3.1-4.1-4-6.5
					C271.7,529,270.8,529.3,271,529.9L271,529.9z"/>
			</g>
		</g>
	</g>
	<g id="mouthline">
		<g>
			<g>
				<path class="st5" d="M199.9,534.8c11.3,5.3,21.5-4.4,32.9-3.5c5.3,0.5,10.2,2.8,15.5,3c2.6,0.1,5-0.4,7.5-1.4
					c1.1-0.5,2.2-1,3.4-1.3c1.1-0.3,2.2-0.3,3.2-0.8c0.6-0.3,0.1-1.2-0.5-0.9c-1.2,0.6-2.5,0.5-3.8,0.9c-1.2,0.4-2.3,0.9-3.4,1.4
					c-2.6,1-5.3,1.2-8,0.9c-4.8-0.6-9.2-2.5-14-2.9c-11.1-0.9-21.4,8.7-32.4,3.6C199.8,533.7,199.3,534.5,199.9,534.8L199.9,534.8z"
					/>
			</g>
		</g>
	</g>
	<g id="fllcheek">
		<path class="st5" d="M137.2,491.4c-1.1,1.1-1.6,2.7-1.9,4.3c-0.4,1.7-0.9,3.5-1.2,5.2c-0.5,2-0.9,4.1-0.9,6.2
			c0,4.2,1.9,8.1,3.6,11.9c1.8,3.7,3.5,7.5,6,10.8c1.8,2.3,3.8,4.4,5.9,6.4c2,2,4,3.9,6,5.9c1.5,1.5,3.2,3.3,3.1,5.5
			c-3.1,0.5-6.1-1.2-8.3-3.4s-3.9-4.9-6.2-6.9c-1.8-1.6-4-2.8-5.7-4.6c-1.3-1.4-2.3-3.1-3.2-4.7c-2.1-3.8-4.3-7.6-5.7-11.6
			c-1.5-4.1-2.2-8.5-1.6-12.8c0.6-4,2.5-7.8,2.6-11.8c0-0.2,0.1-0.6,0.3-0.6s0.1,0.5,0,0.3"/>
		<path class="st5" d="M124.8,490.5c0.1-0.2,0-0.3-0.1-0.4c0.2,3.5,0.4,7,0.6,10.4c0.1,1,0.1,1.9,0.3,2.9c0.2,1,0.6,2.1,1.1,3"/>
		<path class="st5" d="M136.9,531.9c-4.9-3.4-8.8-10.8-10.6-16.3c-0.7-2.1-1.1-4.3-1.6-6.5c-1-5.2-2-10.9,0.4-15.6"/>
		<path class="st5" d="M119.1,488.6c-0.2,1.2-0.1,2.5,0,3.7c0.6,9.1,1.3,18.4,5.1,26.7c2.2,4.7,5.4,8.9,7.2,13.7
			c0.7,1.8,1.3,3.9,3,4.9c0.9,0.5,2,0.7,2.7,1.4c0.9,1,1.2,2.9,2.6,2.9c0.5,0,1-0.3,1.5-0.4c1.9-0.3,2.9,2.7,4.9,3
			c0.6,0.1,1.1-0.1,1.7,0.1c0.5,0.2,0.8,0.6,1.2,1c1.7,1.8,4.5,2.5,6.9,1.7"/>
		<path class="st5" d="M140,534.8c-0.7,0.2-0.9,1.1-0.9,1.9c0.3,3.7,4.5,4.6,6.2,7.5"/>
		<path class="st5" d="M131.5,534.7c-1.5-1.5-4-1.5-5.7-2.8c-0.7-0.5-1.2-1.2-1.7-2c-3.6-5.2-6.5-10.9-8.1-17.1
			c-1.6-6.1-1.8-12.7-0.2-18.8"/>
		<path class="st5" d="M114.1,485.8c-2.4,9.1-2.2,18.8,0.6,27.8c0.7,2.4,1.7,4.8,3.6,6.4"/>
		<path class="st5" d="M137.7,539.6c-0.9-0.7-1.5-1.8-1.8-2.9c-0.3-1.1-0.5-2.3-1-3.3c-0.4-0.8-0.9-1.5-1.4-2.3
			c-1.5-2.3-2.7-4.8-3.5-7.5"/>
		<path class="st5" d="M115.7,522.4c0.1,0.1,0.1-0.1,0-0.1s-0.1,0.1-0.1,0.2c-0.1,1.6-0.3,3.3,0.7,4.5c0.3,0.4,0.9,0.8,1.4,0.6
			c0.5-0.2,0.7-0.7,0.8-1.2c0.4-1.9-0.3-4.1-1.8-5.4c-0.1-0.1-0.3-0.2-0.4-0.2c-0.5-0.1-0.8,0.6-0.9,1.2"/>
		<path class="st5" d="M109.7,483.2c-3,10.4-2.7,21.8,0.9,32.1c0.6,1.7,1.3,3.4,1.3,5.2c0,1.8-0.7,3.8-2.3,4.6
			c-0.3,0.1-0.6,0.3-0.8,0.6c-0.4,0.7,0.7,1.3,1.4,1.1c0.8-0.1,1.5-0.6,2.2-0.3c0.4,0.2,0.6,0.5,0.9,0.8c1.6,1.9,4.2,2.4,6.6,2.9
			c2.7,0.6,5.1,2.5,7.8,2.8"/>
		<path class="st5" d="M118.5,520.5c0.1,0.6,0,1.2-0.3,1.7"/>
		<path class="st5" d="M111,523.6c0.9,1.6,2.9,2.4,4.6,1.8"/>
		<path class="st5" d="M118.5,526.8c2,0.4,2.5,3.6,4.5,4"/>
		<path class="st5" d="M110.1,524.4c-1.4-1.1-2.1-2.9-2.8-4.7c-2.7-7.2-5.5-14.6-6.1-22.3c-0.2-2-0.2-4,0.1-6
			c0.2-1.2,0.5-2.3,0.8-3.5c0.9-3.7,1.3-7.6,1.2-11.4"/>
		<path class="st5" d="M110,483.3c0.1-0.3-0.2-0.7-0.5-0.8c-2-1.2-3.4,4.5-3.7,5.9c-0.7,3-1.5,6-1.4,9.1"/>
		<path class="st5" d="M111,522.8c-0.1-1.7-0.6-3.4-1.4-4.9c-0.7-1.3-1.6-2.4-2.2-3.7c-0.8-1.7-1.1-3.7-1.4-5.6
			c-0.3-2.4-0.7-4.7-1-7.1"/>
		<path class="st5" d="M100.7,493c-0.5-3.8-0.2-7.7-0.2-11.6c0-3.9-0.5-7.9-2.5-11.2"/>
		<path class="st5" d="M95.4,467.3c0.8,1.8,1.3,3.7,1.5,5.6c0.2,1.6,0.1,3.2,0.1,4.8c-0.2,6.6-0.4,13.1-0.6,19.7
			c-0.1,3.4-0.2,6.8,0.9,10c0.6,2,1.7,3.9,1.5,6c-0.1,1.5-0.9,3-0.5,4.4c0.5,1.9,2.8,2.6,4.5,3.5c0.4,0.2,0.8,0.4,1,0.8
			c0.2,0.4,0.3,0.8,0.5,1.2c0.7,1.8,3,2.7,4.7,2"/>
		<path class="st5" d="M100.5,492.4c0.6,4.4,0.9,8.8,0.7,13.3c-0.1,2.1-0.3,4.2,0.2,6.2c0.5,2.6,2,4.9,2,7.5c0,1.2-0.1,2.7,0.9,3.2"
			/>
		<path class="st5" d="M97.8,516.2c-0.9-0.6-0.4-1.9-0.8-2.7c-0.3-0.8-0.9-1-1.6-1.4c-2-1.4-3-4-3.4-6.4c-0.5-3.1,0-6.2-0.1-9.3
			c-0.2-4.9-2-9.6-2.3-14.5c-0.3-5.5,1.3-11.1,4.6-15.5"/>
		<path class="st5" d="M91.5,462.1c-0.2,0.9-0.5,1.7-0.7,2.6c-0.7,2.3-1.3,4.7-1.5,7.1c-0.1,1.9,0.1,3.8,0.3,5.7"/>
		<path class="st5" d="M91.6,507.1c-4.6-4.1-1.6-11.1-3.4-16"/>
		<path class="st5" d="M91.5,462c-0.4,1.4-0.8,2.8-1.4,4.2"/>
		<path class="st5" d="M88.1,502.8c-1.5-1.1-2.5-2.9-2.9-4.7c-1.5-5.7,0.6-11.8,0-17.6c-0.3-3.1-1.4-6.3-0.5-9.3"/>
		<path class="st5" d="M82.6,476.5c-1.1,3.4-2.2,6.8-2.5,10.4s0.3,7.3,2.3,10.2c1.5,2.1,3.6,3.7,5,5.9c1.1,1.7,2,3.9,4,4.5"/>
		<path class="st5" d="M91.6,507.8c0,0.7,0.4,1.4,1,1.7"/>
		<path class="st5" d="M80.4,493.9c-2-1.3-3-4-2.3-6.3"/>
		<path class="st5" d="M78,490.2c-1.1-2.5-0.6-5.4,0.4-7.9s2.5-4.8,3.7-7.2c0.6-1.3,1.2-2.6,2-3.8c1.1-1.4,2.6-2.4,3.8-3.6
			c1.5-1.5,2.6-3.3,3.3-5.2"/>
		<path class="st5" d="M82.1,398.9c-1.3,0.5-2.4,1.7-2.8,3.1"/>
		<path class="st5" d="M80.3,400.3c-0.8,1-1.3,2.3-1.1,3.6c0.1,1.3,0.8,2.5,1.9,3.2"/>
		<path class="st5" d="M78.9,402.6c-0.6,0.9-1.2,1.9-1.6,3s-0.4,2.3,0.2,3.3s1.8,1.6,2.8,1.3"/>
		<path class="st5" d="M78,409.6c-1.1,0.6-2.2,1.3-3.2,2.1c-0.6,0.5-1.3,1.2-1.1,2c0.2,0.5,0.7,0.7,1.1,0.9c1.8,0.8,4.2,1,5.6-0.4"
			/>
		<path class="st5" d="M73.6,414.3c-0.8,1.2-3.8,5.1-0.9,5.7c0.7,0.2,2.9-0.9,3.7-1.1c1.5-0.4,2.9-0.9,4-2"/>
		<path class="st5" d="M78.5,493.4c-1.4-0.1-2.6-1-3.4-2.1c-1.6-2.1-2.2-4.9-1.8-7.5c0.3-2.6,1.4-5.1,2.7-7.4
			c2.4-4.2,5.6-7.9,9.4-11c1.9-1.5,4-2.9,5-5.1"/>
		<path class="st5" d="M73.6,490.7c-3.3-1.7-4.4-5.9-4.1-9.6c0.3-3.9,1.9-7.7,4.5-10.7c4.2-4.9,10.5-7.4,15.1-11.9"/>
		<path class="st5" d="M69.7,487c-3.5-4.2-3.7-10.4-2-15.7c0.4-1.4,1-2.8,1.9-3.9c1-1.2,2.4-2.1,3.8-2.9c5-3,9.9-5.9,14.9-8.9"/>
		<path class="st5" d="M65.6,477.3c0.6-1.9,0.7-4,0.2-5.9c-0.5-1.9-1.6-3.8-1.2-5.8c0.2-1,0.9-1.9,1.5-2.8
			c4.9-6.3,11.6-11.3,19.1-14.1"/>
		<path class="st5" d="M86.4,451.5c-3.6,2.3-7.1,4.6-10.7,6.9c-1.8,1.1-3.5,2.3-4.8,3.9c-1.2,1.5-2,3.3-2.7,5.2
			c-0.6,1.5-1.2,3.1-1.3,4.7"/>
		<path class="st5" d="M63.8,465.9c-1.2-2.7-1.7-5.6-1.5-8.5c0.1-1.5,0.4-3,1.1-4.4c0.9-1.8,2.5-3.1,4.1-4.4
			c1.5-1.2,2.9-2.4,4.4-3.6c1.8-1.5,3.6-3,5.8-3.8c1.9-0.7,4.1-0.8,6.1-0.4"/>
		<path class="st5" d="M64.3,466.5c-1-2.5-0.9-5.5,0.2-7.9c0.4-0.9,1-1.8,1.6-2.6c4.4-5.9,11.5-9.8,18.9-10.2"/>
		<path class="st5" d="M61.7,455.4c1.4-2.6,2.3-5.5,2.7-8.4c0.1-0.7,0.1-1.4,0.4-2.1c0.3-1.1,1-2,1.6-2.9c0.9-1.3,1.9-2.6,3.3-3.5
			c0.9-0.5,1.9-0.8,2.9-1c3.5-0.8,7.1-1.1,10.7-0.8"/>
		<path class="st5" d="M65.3,442.5c1.5-2.2,2.5-4.6,2.9-7.2c0.1-0.5,0.1-1,0.4-1.5c0.4-0.8,1.1-1.3,1.9-1.7c2-1,4.4-1.1,6.6-0.6
			c2.2,0.5,4.3,1.6,6,3"/>
		<path class="st5" d="M69.1,432.4c0.2-2.4,1.3-4.7,3-6.3c0.7-0.6,1.5-1.2,2.4-1.2c2.3-0.2,4.1,2.6,6.5,2.5c0.4,0,1-0.1,1.1,0.3"/>
		<path class="st5" d="M71,419.1c0.1-0.1,0-0.3-0.2-0.2s-0.2,0.2-0.2,0.3c-0.5,1.4-0.7,2.9-0.6,4.4c0.1,2,0.6,4.2-0.5,5.9"/>
		<path class="st5" d="M80.2,418.9c-0.7,0.2-1.2,0.8-1.8,1.2c-1.2,0.9-2.6,1.4-4,1.9c-0.8,0.3-1.6,0.6-2.3,0.8
			c-0.3,0.1-0.6,0.2-1,0.2c-0.7-0.1-1.3-0.9-1.2-1.6c0-0.8,0.5-1.4,1-2"/>
		<path class="st5" d="M75.5,424.8c0.8,1,2.5,0.6,3.4-0.2s1.3-2.2,2-3.3"/>
		<path class="st5" d="M135.5,514.9c2.7,0.5,5.4-0.5,8-1.5c4.5-1.8,9-3.6,12.6-6.9"/>
		<path class="st5" d="M134.5,512.4c7.9-0.9,15.6-3.9,22-8.6"/>
		<path class="st5" d="M134.2,509.3c-0.1-0.2-0.1-0.5-0.2-0.7c6.1,0.9,12-2.1,17.4-5.2c1.7-1,3.5-2,5.2-3"/>
		<path class="st5" d="M133.7,505.2c-0.2-0.2,0-0.7,0.3-0.7s0.6,0.1,0.9,0.3c1.2,0.5,2.7,0.3,4,0c6.2-1.4,12.3-3.6,18-6.5"/>
		<path class="st5" d="M134,501.3c0.5-0.1,1.1-0.2,1.6-0.2c8.5-0.5,16.8-3.4,23.6-8.4"/>
		<path class="st5" d="M134.8,497.7c8.9-1.1,17.5-4.4,24.8-9.6"/>
		<path class="st5" d="M136.7,493.7c0.1-0.2-0.1-0.6-0.4-0.5c1.8,0.2,3.6-0.3,5.3-0.8c7.3-2.2,14.3-5.2,20.8-9"/>
		<path class="st5" d="M156,506.8c0.6-4.1,1.4-8.1,2.4-12.1c1.2-5.1,2.9-10.3,6.4-14.2c3.1-3.4,7.5-5.3,11.4-7.7
			c3.7-2.3,7.1-5.2,10-8.4"/>
		<path class="st5" d="M150,511c-0.1-0.2-0.3-0.3-0.4-0.5c2.1,1.6,4.4,2.8,7,3.6"/>
		<path class="st5" d="M199.5,533.6c-4.5,0.2-8.1,3.3-12.7,3.4c-5.4,0.1-10.8-2.1-15.6-4.4c-3-1.5-6.1-3.7-8.4-6.3
			c0.2-0.3,0.1-0.7-0.3-0.7c-0.1,0-0.3,0-0.4-0.1c-0.6-0.7-1.1-1.5-1.5-2.3c0-0.2-0.1-0.4-0.3-0.5c-2.6-5.2-3.6-10.3-3.5-16.1
			c0-0.6-1-0.6-1,0c-0.1,4.3,0.4,8,1.6,11.7c-0.7-0.3-1.5-0.6-2.3-0.8c-1.6-0.4-2.8-1.1-4.2-1.7c-2-0.9-4.3-1.4-6.4-2
			c0-0.1-0.1-0.1-0.2-0.1c-0.6-0.3-0.7-0.3-1.4-0.2c-0.5,0.1-0.4,0.8,0,1c2.7,0.8,5.6,1.3,8.1,2.6c2.2,1.1,4.5,1.4,6.7,2.6
			c0.1,0,0.1,0,0.1,0c0.3,0.8,0.6,1.7,1,2.5c0.1,0.1,0.1,0.3,0.2,0.4c-1.8-0.2-3.5-0.7-5.1-1.7c-1.3-0.8-2.6-1.7-4-2.4
			c-2.7-1.5-5.5-2.8-8.3-4.2c-0.6-0.3-1.1,0.6-0.5,0.9c3.3,1.6,6.7,3.1,9.8,5c1.5,0.9,2.8,2,4.4,2.6c1.4,0.6,2.8,0.8,4.3,0.9
			c0.3,0.6,0.7,1.1,1,1.6c-7.9-1.5-16.4-4.4-22.4-9.9c-0.5-0.4-1.2,0.3-0.7,0.7c6.4,5.9,15.5,8.9,24,10.4c1.6,2,3.6,3.7,5.7,5.2
			c-2.1-0.7-4.2-1.5-6.2-2.5c-3.1-1.4-5.9-3.3-9.1-4.7c-2.9-1.2-5.9-1.9-8.7-3.3c-2.9-1.4-5.4-3.4-7.4-5.9c-0.4-0.5-1.1,0.2-0.7,0.7
			c1.9,2.2,4.1,4.1,6.6,5.5c3,1.6,6.3,2.4,9.4,3.7c3.4,1.4,6.5,3.5,9.8,5c3.1,1.4,6.3,2.6,9.6,3.6c0.1,0,0.2,0,0.3,0
			c3.5,1.8,7.4,3.3,11.2,4c-0.2,0.5-0.1,1.2-0.1,1.8c-1.9,0.8-5.5,0.2-7.3-0.1c-1.7-0.3-3.5-0.8-5.1-1.5c-3.9-1.5-7.5-3.8-11.1-5.7
			c-3.6-1.9-7.3-3.6-11.1-5.3c-3.3-1.4-7-2.5-9.5-5.2c-0.4-0.5-1.1,0.2-0.7,0.7c2.8,3,6.9,4.2,10.5,5.7c4.3,1.9,8.6,4,12.7,6.2
			c3.7,2,7.3,4.2,11.4,5.3c2.5,0.7,6.4,1.6,9.3,1.1c-0.5,1.5-2,2.2-3.1,3.2c-0.3,0.2-0.5,0.5-0.7,0.7c-2.1-1.1-4.5-1.2-6.8-1.7
			c-3.3-0.6-6.2-2.4-9.1-4c-6.1-3.2-12.1-6.5-18.2-9.7c-0.6-0.3-1.1,0.6-0.5,0.9l18.2,9.7c2.4,1.3,4.8,2.8,7.4,3.6
			c2.8,0.9,5.7,0.8,8.3,2c-0.2,0.3-0.5,0.6-0.7,0.9c-0.3,0.4-0.7,1-1.2,1.6c0,0,0,0,0,0c-8.5-2.7-16.6-6.3-24.3-10.7
			c-0.6-0.3-1.1,0.5-0.5,0.9c3.9,2.2,7.8,4.2,11.9,6c-1.4,0.5-2.9,0.8-4.4,0.9c-0.6,0-0.6,1,0,1c2,0,3.8-0.5,5.6-1.2
			c0,0,0.1,0,0.1-0.1c3.6,1.6,7.4,3,11.1,4.2c-0.3,0.7-0.5,1.4-0.1,1.9c0,0,0,0,0,0c-0.5,0.3-0.9,0.6-1.3,1
			c-1.7-0.2-3.4-1.5-4.8-2.2c-1.1-0.5-2.2-1-3.4-1.4c-2.6-0.9-5.2-1.5-7.9-1.8c-0.6-0.1-0.6,0.9,0,1c3.7,0.5,7.4,1.5,10.8,3.1
			c2.1,1,4.1,2.8,6.5,2.3c0.5-0.1,0.4-0.6,0.2-0.9c2.3-1.8,5.6-2.1,7.4-4.5c0.7-0.8,1-1.8,1.1-2.8c0.1-0.9,0.1-1.8,0.1-2.7
			c0-0.6,0-1.3,0-1.9c0,0,0,0,0,0c0-0.1,0.1-0.2,0-0.3c0-0.5,0-0.9-0.3-1.3c0.2,0,0.4-0.1,0.5-0.3c0,0,0-0.1,0.1-0.1c0,0,0,0,0,0
			c0.1,0,0.2,0,0.4,0.1c2.6,0.3,5.2,0.2,7.6-0.6c2.7-0.9,5.1-2.5,8-2.6C200.2,534.6,200.2,533.6,199.5,533.6z M181,546.9
			c-1.5,1.7-3.8,2.3-5.8,3.3c0,0,0,0,0,0c-0.3-0.5,1.3-2.7,1.6-3.1c0.8-1.2,1.8-2.2,2.9-3.1c1.1-0.9,2-1.7,2.5-2.9
			C182.3,543.1,182.3,545.5,181,546.9z"/>
	</g>
	<g id="fllscalp">
		<path class="st5" d="M167.7,380.9c-0.9-1.3-1.9-2.5-2.8-3.8c0.1,0.1,0.1,0.7,0.3,0.8c0.1,0.1,0.3,0.3,0.4,0.5
			c-0.9-1.8-2.2-3.4-2.6-5.6c-0.7-4.2,0.8-8.8,2.5-12.5c0.9-1.9,2.1-3.4,3.7-4.8c1.3-1.1,4.1-4.8,5.7-4.5c-1.2-2.4-4.7-1.6-6,0.1
			c-2.8,3.6-5.5,7.4-7.1,11.7c-1,2.4-1.6,5-1.6,7.7c0,1.8-0.1,5.8,1.6,7.1"/>
		<path class="st5" d="M154.3,374.5c-0.3-1.5,0.3-3.1,0.9-4.6c3.3-7.8,6.8-15.8,12.8-21.7c0.5-0.5,2.1-2,3-1.7
			c0.8,0.3,0.6,1.3,0.8,2.1c0.1,0.5,0.3,0.5,0,0.9"/>
		<path class="st5" d="M157.5,374.8c0,0,0.1,0.1,0.1,0.1c-1-2.2-0.9-4.9-0.1-7.2c0.7-2.3,2-4.5,3.3-6.5c1.8-2.9,3.5-5.7,5.3-8.6"/>
		<path class="st5" d="M169.4,346c0-1.2-1.6-2-2.7-1.7s-2.1,1.3-2.9,2.2c-6.8,8-13.9,16.5-15.7,26.8c-0.1,0.3-0.2,0.8-0.5,0.8
			c-0.3,0.1-0.2-0.7,0-0.4"/>
		<path class="st5" d="M151.2,374.2c-0.2-1.2,0.3-2.4,0.7-3.5c1.2-2.9,2.4-5.8,3.6-8.7c0.5-1.3,1.1-2.6,2.2-3.5"/>
		<path class="st5" d="M166.7,343.8c0.3-1.4-1.3-2.6-2.7-2.5c-1.4,0.1-2.6,1-3.7,1.9c-8.9,7.4-16.1,16.7-21,27.2
			c-0.6,1.3-1.2,2.6-1.8,3.9c0.3-0.1,0.6-0.3,0.9-0.4"/>
		<path class="st5" d="M141,373.8c-0.4-0.7,0-1.5,0.4-2.1c3.9-6.7,8.3-13.1,13.3-19.2"/>
		<path class="st5" d="M144.8,373.6c0.1,0,0,0.2-0.1,0.1c-0.1,0-0.1-0.2-0.1-0.3c0.1-1.1,0.5-2.1,0.9-3c0.7-1.5,1.4-3,2.3-4.5"/>
		<path class="st5" d="M169.5,345.3c0.1,0.5,0.1,1,0.2,1.5"/>
		<path class="st5" d="M166.8,343c-0.1,0.3,0,0.6,0,1c0,0.1,0.2,0,0.1,0"/>
		<path class="st5" d="M167,342.6c0.6-1.3-0.6-2.8-1.9-3.4c-2.3-0.9-5,0-7.2,1.1c-9.7,4.9-17.4,13.5-21.1,23.7
			c-1.6,4.4-2.6,9.2-5.8,12.6"/>
		<path class="st5" d="M135,374.8c-0.1-1.7,0.6-3.3,1.2-4.9c3.6-8.1,7.4-16.5,14.2-22.1"/>
		<path class="st5" d="M165.2,339c0.2-1,0.2-3.4-0.7-4c-0.7-0.5-1.6-0.1-2.3,0.3c-6.7,3.4-13.6,7-19.1,12.2
			c-8.4,7.9-13.4,19.5-16.6,30.4"/>
		<path class="st5" d="M162.5,334.6c-2,0.2-3.9,0.5-5.9,1c-5,1.3-9.6,3.8-13.5,7.3c-2.2,2-4,4.2-5.9,6.4
			c-6.6,7.9-13.5,16.1-15.8,26.1c-0.4,1.5-0.6,3-0.9,4.5"/>
		<path class="st5" d="M96.2,401.7c1.4-5.8,2.7-11.9,3.4-17.9c1.6-13.2,10-24.4,18.1-34.9c3.1-4,6.2-8,10.4-10.8
			c2.3-1.5,4.8-2.6,7.3-3.6c2.9-1.2,5.8-2.5,8.8-3.7c3.2-1.3,6.8-2.7,10-1.3c0.9,0.4,1.9,0,2.8-0.3c2.3-0.9,4.7-1.4,7.2-1.5
			c0.3,0,0.7,0,1,0.1c1,0.4,0.8,1.9,0.3,2.8c-0.6,1.1-2.1,1.7-2.9,2.7c-0.2,0.3-0.4,0.5-0.7,0.8c0.4-0.1,0.7-0.6,0.6-1.1
			c-1.9-0.9-4-0.6-6-0.1c-7,1.5-13.4,4.8-19.2,9.1c-2.8,2.1-5.5,4.5-8,7c-5.8,5.8-10.1,12.4-12.8,20.2c-1.9,5.6-4.2,11.3-5.8,17"/>
		<path class="st5" d="M104.3,391.3c1.4-8.5,3.6-17,6.6-25.1c0.8-2.1,1.6-4.2,2.7-6.2c1.8-3.4,4.3-6.3,6.9-9.1
			c5-5.4,10.6-10.3,17.1-13.8c6.5-3.5,13.9-5.4,21.2-4.7"/>
		<path class="st5" d="M91.6,407.8c-1.9-6.7,0.9-13.8,2.5-20.3c1.6-6.5,4-12.9,7.1-18.9c3.3-6.6,7.5-12.7,12.3-18.3
			c3.8-4.4,10.6-13.2,16.6-13.9"/>
		<path class="st5" d="M81.6,399.4c3.1-1.1,6.8-0.4,9.3,1.8"/>
		<path class="st5" d="M80.5,416.3c2.3-5.1,5.9-9.7,10.2-13.2"/>
		<path class="st5" d="M80.3,405.7c0.5,1.6,2,3,3.6,3.3"/>
		<path class="st5" d="M79.3,410c1.1,0.5,2.2,1,3.3,1.4"/>
		<path class="st5" d="M88,399.2c1.7,0,3.3-1.2,3.7-2.8"/>
	</g>
	<g id="fllefteye">
		<path class="st5" d="M112.4,421.3c-3.6,1.6-6.6-5.3-10.4-4.3c2.9,2.2,3.8,6,5.1,9.4c3.3,9.2,9.9,16.9,19.5,20.3
			c7.9,2.7,22.2,4.5,29.4-0.5c2.5-1.8,11.8-10.4,15-6.6c0,0,0,0,0,0c0.4,0.5,0.4,1.1,0.6,1.7c0.5,1.2,1.7,1.8,2.9,2.3
			c1.3,0.5,2.7,0.9,4,0.7s2.7-1.1,3.1-2.4c0.5-1.7-0.8-3.6-2.4-4.3s-3.5-0.5-5.3-0.3c1.8,0.8,3.8-1.3,3.5-3.3
			c-0.3-1.9-2.1-3.3-3.9-4.1c-0.5-0.2-1-0.4-1.6-0.3c-0.8,0.2-1.3,1.2-1.1,2c0.1,0.8,0.6,1.4,0.8,2.2c-3-0.1-4.2,2.1-6.6,3.6
			c-3.6,2.3-7.8,3.3-12,4.2c-3.8,0.8-7.6,1.6-11.5,1.6c-5.6,0-11.1-1.6-16.5-3.2c-4.1-1.2-11.7-6.7-12.4-11.3
			c-1.4-10.3,5.7-19.9,14.4-24.7c6.8-3.8,15.2-3.8,22.4-1.1s13.3,8,18,14.2c3.1,4.1,5.8,9.7,3,14.8c-0.8,1.3-7.8,6.8-4.3,7.3"/>
		<path class="st5" d="M109,419.5c-0.4,0-0.2-0.6,0.1-0.8c3.1-2.8,7-4.7,9-8.3c0.7-1.2,2.2-1.4,3.2-2.2"/>
		<path class="st5" d="M102.6,416.2C114,403,130,394,147,396c7,1,14,4,19,9c2,3,5,5,6,9c2,6,3,11,4.1,16.5"/>
		<path class="st5" d="M155.2,447.4c4.6-2.2,9.2-4.4,13.7-6.7c0.5-0.2,1-0.5,1.1-1.1c0.9,1.5,1,3.7,0,5.2s-2.4,2.5-3.9,3.4
			c-10,6.2-22.4,8.4-34,6.2c-2.3-0.5-4.6-1.1-6.9-1.7c-2-0.6-4.1-1.1-5.9-2.2c-1.7-1-3.1-2.3-4.5-3.7c-2.7-2.7-5.4-5.4-7.5-8.6
			c-3.7-5.5-5.4-12-7.1-18.4c-0.3-1.4-0.9-3-2.3-3.3"/>
		<path class="st5" d="M171.9,441.5c0.4,0.6,1,1.1,1.5,1.7c1.7,2.1,0.1,4.6-1.3,6.4c-2.7,3.5-5.6,7.3-9.9,8.8
			c-5.9,2.1-12,3.6-18.2,4.6c-3.8,0.6-7.7-0.1-11.5-0.7c-3.7-0.7-7.2-1.2-10.8-2.5c-5.5-1.9-10.5-5-14.6-9.1
			c-6.8-6.8-10.8-16.5-10.1-26c0.1-1.4,0.3-2.9,0-4.2s-1.4-2.7-2.8-2.9"/>
		<path class="st5" d="M111.7,421.3c0.8-0.4,1.4-1.1,2-1.8"/>
		<path class="st5" d="M98.7,416.2c0.8-1.2,1.5-2.3,2.3-3.5c2.5-3.8,4.9-7.5,8-10.8c5.2-5.6,12-9.7,19.3-11.8
			c3.1-0.9,6.4-1.3,9.6-1.6c8.8-0.8,18.1,0.1,25.7,4.5c7.7,4.5,13.1,12.4,15.2,21c0.8,3.1,1.1,6.3,0.7,9.5c-0.2,1.5-0.6,3.1-1.2,4.5
			c-0.4,0.9-2.9,3.6-1.2,4.3"/>
		<path class="st5" d="M177.7,436.3c0.3-0.5,0.6-1,0.9-1.6c1.3-2.3,1.8-5,1.5-7.7c-0.2-1.2-0.5-2.4-0.1-3.5"/>
		<path class="st5" d="M174.5,443.6c0.9,1.4,1.3,3.1,1.1,4.7c-0.1,0.8-0.4,1.5-0.8,2.2c-1.9,3.9-5.9,6.6-10.1,7.2"/>
		<path class="st5" d="M94.6,417.2c0.4,0.3,0.9,0.4,1.4,0.3c0.4-0.1,0.7-0.3,1-0.5c0.5-0.3,1-0.6,1.4-1"/>
		<path class="st5" d="M178.4,444.5c2,1.6,1,4.7-0.2,6.9c-7.3,12.6-20.8,22.1-35.4,22.3c-8.8,0.1-17.5-3-25.1-7.6
			c-11-6.6-20.4-16.7-23.6-29.1c-1.8-6.9-1.9-14.8-6.9-19.9c0.5,0.5,3.2,0.5,4,0.6c1.1,0.1,5.4,0.5,5.8-1"/>
		<path class="st5" d="M174.2,437.5c-0.2,0-0.4,0-0.6,0c-0.8,0-1.6,0.6-2,1.3s-0.5,1.5-0.5,2.4c0,0.3,0.2,0.7,0.5,0.7"/>
		<path class="st5" d="M173.3,437.1c1.7-0.9-1.1-2.9-1.5-3.7"/>
		<path class="st5" d="M88.2,416.6c2-1.2,3.9-2.8,5.5-4.5c4.3-4.6,6.7-10.6,11-15.2c6.6-7.2,16.6-10,26.3-11.7
			c8.2-1.5,16.7-2.4,24.9-0.8s16.2,5.9,20.5,13.1c2.7,4.4,3.8,9.5,4.4,14.5c0.8,6.7,0.7,13.5-0.4,20.1"/>
		<path class="st5" d="M104.3,414.2c-0.3,0.4-0.6,0.8-0.9,1.2c-0.2,0.3-0.4,0.6-0.7,0.8c-0.6,0.5-1.4,0.7-2.1,0.6s-1.5-0.2-2.2-0.4"
			/>
		<path class="st5" d="M89.2,415.9c-2.2,2.1-5.5,2.9-8.5,2.2c0.9-0.3,0.7-0.9,1.2-1.5c0.8-1.1,1.9-2.1,3-3c1.5-1.2,3-2.4,4.5-3.6
			c2.4-2.2,4.4-4.9,6.3-7.5c3.1-4.3,6.1-8.2,9.9-11.9c8.1-7.7,17.9-12.8,29.1-14.1c4.4-0.5,8.9-0.6,13.3-0.1c4,0.5,8,1.5,11.8,2.9
			c9,3.5,17.1,9.9,21.9,18.3c4.8,8.4,6.3,18.8,3.4,28.1c-1.5,4.7-4.1,9.6-2.5,14.2"/>
		<path class="st5" d="M84.5,418.3c1.5,1.9,2,4.3,2.5,6.7c2.2,9.8,5.1,19.6,9.9,28.5c1.8,3.3,3.9,6.5,6,9.7c3.3,5,6.6,10,10.8,14.3
			c4.2,4.2,9.4,7.7,15.2,8.9c7.2,1.5,14.6-0.7,21-4.2s11.9-8.5,17.5-13.2c3.1-2.6,6.3-5.2,8.9-8.4c4.8-6,7-14,5.9-21.6"/>
		<path class="st5" d="M79.7,418.2c1.2-0.1,2.3,0.6,3,1.6c0.7,0.9,1.1,2.1,1.4,3.2c4.7,15.2,7.3,31.5,16.1,44.8
			c1.8,2.8,4,5.4,6.5,7.5c2.1,1.7,4.4,3,6.7,4.2c1.5,0.7,3.1,1.5,4.7,1.3"/>
		<path class="st5" d="M183.1,442c1.9,3.5,0.6,7.8-0.8,11.4c-3.2,8-7.5,15.7-13.3,22.1s-13.1,11.6-21.4,14.1
			c-11.2,3.4-23.8,1.7-33.6-4.6c-6.6-4.2-11.9-10.3-16.9-16.3c-2.3-2.8-4.5-5.6-6.3-8.6c-5-8.5-6.5-18.6-7.8-28.3
			c-0.7-4.7-1.3-9.5-3.1-14"/>
		<path class="st5" d="M129.9,377c7.1-2.7,14.9-3.5,22.4-2.3c1.8,0.3,3.6,0.7,5.3,1.2c3.9,1.2,7.6,3.1,10.9,5.7
			c1.6,1.3,3.3,2.7,4.6,4.4c1.2,1.5,2,3.2,3.6,4.4"/>
	</g>
	<g id="Layer_50">
	</g>
</g>
<g id="Image_xA0_47_1_" class="st0">
	<g id="Image_xA0_42_xA0_Image_1_" class="st6">
	</g>
	<g id="Layer_25_xA0_Image_1_" class="st6">
	</g>
	<g id="Layer_26_xA0_Image_1_" class="st6">
	</g>
	<g id="Layer_24_xA0_Image_1_" class="st6">
	</g>
</g>
<g id="Layer_61">
	<g id="Layer_65">
		<path class="st5" d="M229.3,497c0.1,0.3-0.6,0.3-0.6,0c0-0.3,0.3-0.6,0.6-0.8c2.7-1.7,6.4-2.6,7.5-5.6c0.4-1.2,0.3-2.6,0.4-3.9
			c0.3-4.5,4-8.5,8.5-9.2"/>
		<path class="st5" d="M206.7,482c1.9-2,5.6-1.8,7.1,0.5c0.7,1,0.9,2.2,1.3,3.3c1.9,5.5,7.3,9.7,13.1,10.1"/>
		<path class="st5" d="M206.3,482.3c-0.6-2.7-5-2.6-6.3-5.1c-0.3-0.7-0.4-1.5-0.4-2.2c-0.1-2.7,0.3-5.5,1.2-8.1"/>
		<path class="st5" d="M202.2,466.7c9.9,3.8,20.8,5.1,31.4,3.8c5-0.6,9.8-1.7,14.7-2.8c0.4-0.1,0.9-0.2,1.3,0
			c0.4,0.2,0.6,0.8,0.7,1.2c0.5,1.9,1,3.9,0.6,5.9c-0.4,2-1.8,3.9-3.8,4.1"/>
		<path class="st5" d="M228.6,496.4c0.1,2.2,0.9,8.6-0.6,9.9c-0.2,3.5-0.8,6.9-2,10.3c-1.4,3.5-4.4,5.3-7.6,7.1
			c-6.8,4-14.2,7.7-21.6,9.9c-5.1,1.5-9.6,4-15,4.6c-2.3,0.2-4.3-0.5-6.3-1c-3.9-1-7.9-1.1-11.9-1c-1.9,0-6.2-0.1-3.5,2.8"/>
		<path class="st5" d="M286.5,525c-0.6,1.9-4.5,3.4-6.3,4.1c-2.3,0.9-4.7,0.7-7.2,0.7c-4.6,0-8.8,1.6-13.5,1
			c-4-0.5-7.9-2.7-11.9-3.4c-4.2-0.8-8.7-1.4-12.3-3.8c-3-2.1-6.3-7.2-7.2-10.8c-0.6-2.5-0.5-5.1,0.1-7.4"/>
		<path class="st5" d="M226,517.8c0.1,0.4-0.2-0.6-0.3-0.8"/>
		<path class="st5" d="M226.3,518.5c0-0.3,0-0.6,0-1c1.2-0.1,2.7-0.3,3.6,0.4c-1.6-0.5-4-0.6-4.9,1.3"/>
	</g>
	<g id="Layer_67">
		<path class="st5" d="M162.8,490.8c-0.2-0.3-0.3-0.6-0.4-0.7c-0.2,0.7,0,1.1,0.2,1.7c0.5,0.2,0.4-0.1,0.8-0.2"/>
		<path class="st5" d="M167.8,490.8c-0.1,1,0.3,2,1.2,2.2c-0.1-0.8,0.4-1.2,0.5-1.7"/>
		<path class="st5" d="M176,490c-0.1,1.2,0.2,1.9,1.3,1"/>
		<path class="st5" d="M185.5,490c0,0.9,0,1.4,1,1.5c0.1-0.3,0-0.6,0-1"/>
		<path class="st5" d="M186.3,500.5c-0.6,1-0.1,3.4,1.3,2"/>
		<path class="st5" d="M176.5,501.5c-0.1-0.2-0.1-0.5-0.3-0.7c-1.2,1,0,2.9,1.6,2"/>
		<path class="st5" d="M168.3,502.5c-0.6,1.1-0.1,2.1,1,2.5"/>
		<path class="st5" d="M162,502.8c-0.4,0.2-0.8,0.6-1,1c0.3,0.5,0.7,0.8,1.3,1"/>
		<path class="st5" d="M161,517.8c-1.6-0.1-0.9,2.6,2,1.8"/>
		<path class="st5" d="M166.3,517.8c-0.2,1.1,0.6,1.6,1.8,1.5"/>
		<path class="st5" d="M172,516.5c0.7,1,1.8,2.1,3,1"/>
		<path class="st5" d="M180.3,516.8c1.9,0.9,2.2-0.5,1.8-2"/>
		<path class="st5" d="M188.3,514c0.8,0.3,1.1,0.1,0.8-0.5"/>
		<path class="st5" d="M194,500.8c-0.1,1.4,1.6,1.4,2,0.3"/>
		<path class="st5" d="M199,512.3c0.2,0,0.3,0,0.5,0"/>
		<path class="st5" d="M264.3,485.8c-0.2-0.3-0.3-0.6-0.7-0.2c-0.1,0.3,0,0.4,0,0.7"/>
		<path class="st5" d="M263.8,495.5c-0.4,0.2-0.7-0.1-0.8,0.5c0.4,0.6,0.7,0.4,1.3,0.5"/>
		<path class="st5" d="M262.8,505.8c-0.6,0.2-1,0.4-1.2,1c0.4,0.3,0.9,0.3,1.5,0.2"/>
		<path class="st5" d="M259.3,518.3c-0.1,0.7,0.4,1,0.8,1"/>
		<path class="st5" d="M188.3,525.8c-0.1-0.3,0-0.7-0.1-1c-0.8,0.9,0,1.8,1.1,2.2"/>
		<path class="st5" d="M179.8,527.3c0.4,0.5,1.2,0.7,2,0.5"/>
		<path class="st5" d="M172.3,528.3c0.1,0.2,0.6,0.5,1.3,0.5"/>
		<path class="st5" d="M251.8,506.8c0,0,0.7,0.3,1.3,0.5"/>
		<path class="st5" d="M255.8,495.3c-0.1,0.4,0.2,0.6,0.8,0.8"/>
		<path class="st5" d="M271.8,485.8c-0.3,0.2-0.5,0.5-0.7,0.8c0.2,0.2,0.5,0.6,0.7,0.7"/>
		<path class="st5" d="M272.8,497.3c-0.3-0.3-0.4-0.6-0.7-0.7c-0.5,0.8-0.3,1.3,0.2,2"/>
		<path class="st5" d="M270,509.3c-0.3,0-0.5,0-0.7,0c-0.2,0.6,0.1,0.7,0.5,1"/>
		<path class="st5" d="M267.8,519.3c-0.4,0.2-0.6,0.5-0.3,0.8"/>
		<path class="st5" d="M279.8,486.5c0.1,0.2,0,0.5,0,0.7c0.7,0,0.6,0.4,0.5,0.3"/>
		<path class="st5" d="M280.3,497.8c-0.7-0.3-0.9,0.2-0.8,1"/>
		<path class="st5" d="M276.8,510c-0.1-0.1,0.2-0.7-0.2-0.2c-0.2,0.6,0,0.9,0.2,1.5"/>
		<path class="st5" d="M275.3,520.5c-0.4,0.2-0.4,0.5,0,0.8"/>
		<path class="st5" d="M285.3,487.5c0,0,0.2,0.7,0.3,1"/>
		<path class="st5" d="M285,499.8c0-0.4,0,0.4,0,0.5"/>
		<path class="st5" d="M283,511.5c-0.6,0-0.7,0.4-0.5,1"/>
		<path class="st5" d="M280.8,522c-0.3,0.1-0.3,0.2,0,0.3"/>
	</g>
	<g id="Layer_66">
		<path class="st5" d="M311.8,413.4c0.5,10.2-11,16.5-19.7,18.8c-12.1,3.3-37.6,0.1-30.8-18.2c5.1-13.8,12.2-23.6,28.7-20.7
			C299.8,395.1,311.3,402.4,311.8,413.4z"/>
		<path class="st5" d="M114.3,423c4.6,17.6,29.5,25.6,46.7,15.3c20.4-12.2-3.6-39-22-36.7c-5.4,0.7-10.6,4.5-14.6,8
			c-2.5,2.2-4.3,4-6.2,6.7c-1.2,1.7-4.6,6.4-3.2,5.3"/>
	</g>
	<g id="Layer_63">
		<path class="st5" d="M381.8,349.8c-4.4-4-5.6-10.4-5.3-16.4s1.9-11.7,2-17.6c0.2-9.4-1.7-18.6-1.5-28.1
			c0.3-10.9,0.7-21.9,0.3-32.8c-0.3-6.6-0.8-13.3-2.3-19.7c-3.6-14.9-16.6-45.5-33.7-49c-17.5-3.6-32.8,20.6-38.6,33.8
			c-4.5,10.2-8.3,21.1-15.9,29.2c-7.2,7.7-8.2,14.7-13,23.3c-4.6,8.1-11.7,15.7-15.5,24.1c-2.8,6.3,1.3,13.8-2.8,20.1
			c-4,6-10.6,3-16.4,2.8c-1.5-0.1-15.9,1.5-14.7,2.8c-3-3.4-7-1.6-11.3-1.4c-4.8,0.3-7.9-2.6-11.7-2.7c-2.8-0.1-4.5,2.5-6.6,2.7
			c-2.1,0.2-3.4-1.4-4.3-1.4c-4.2,0-7.9-0.6-8.2,5.2c-3.1-0.9-6-2.6-9.8-1.8c-2.2,5.9-5.1,0.9-8.1,0.9c-4.6,0-6.6,4.4-10,5.1
			c-4.5,0.9-6.3-3.2-10.7-2.7c-8.4,0.9-12.6,11.6-16.1-2.7c-1.9-7.7-5.7-15.2-10.9-21.1c-5.2-5.9-11.9-7.2-18.2-11.7
			c-15.3-11-28.5-25.2-38.7-40.9c-5.3-8.2-10-17-16.6-24.2c-6-6.5-13.5-11.6-21.8-14.7c-2.7-1-5.6-1.8-8.5-1.5
			c-3.2,0.4-6,2.2-8.4,4.3c-11.5,9.8-15.8,25.4-19.5,40.1c-1.6,6.3-3.2,12.6-4.1,19c-1.1,7.4-1.4,15-1.3,22.5
			c0.2,12.7,1.7,25.3,4.2,37.8c0.9,4.5,1.1,9.3,3.2,13.3c2.2,4.3,6.9,6.8,8.4,11.6c0.7,2.1,0.6,4.4,0.6,6.6
			c-0.1,11.3,1,22.7,3.3,33.7c0.4,2,0.9,4.1,2.2,5.7c1.8,2.2,4.6,3,7.2,4.2c11.5,5.4,16.6,18.5,22,29.9s14.6,23.6,27.3,23.3
			c-0.8,0,5.2,19.3,5.7,20.6c1.8,4.2,2.9,8.7,6.1,11.7c3.1,2.8,8.2,2.7,11.1,6c2.6,2.9,1.5,5.5,3.1,8.8c1.7,3.5,4.1,3.9,6.5,6.2
			c4.9,4.6,9.3,7,14.5,10.8c3,2.2,4.3,4.4,7.4,6c2.9,1.5,6.7,1.6,9.7,3c6.2,2.9,10.4,8.8,16.3,12.3c6,3.5,14.2,4,21.1,7
			c9.9,4.3,21.8,1.3,31.6,5.7c2.4,1.1,4.6,2.6,7,3.7c6.9,3.1,14.7,2.6,22.3,2"/>
		<path class="st5" d="M220.3,564.6c11.4-1.6,22.8-3.3,34.1-4.9c2.7-0.4,5.6-0.8,8-2.1c2.4-1.3,4.2-3.3,6-5.3
			c15.1-16.1,32.1-30.2,46.8-46.6c14.7-16.4,27.4-35.6,31.1-57.4c1.3-7.3,2.6-15.7,7.2-21.6c5.4-7,10.7-11.7,14-20.4
			c2.9-7.6,4.7-15.6,8-23.1c2.5-5.7,5.8-11.1,7.9-16.9c2.1-5.9,2.8-12.6,0.1-18.2"/>
	</g>
	<g id="Layer_64">
		<path class="st5" d="M175,361c1.7-4,6.9-7.8,9.8-11.7c3.3-4.6,5.4-10.9,8.9-14.9"/>
		<path class="st5" d="M191.7,366.3c0.2-6-8.8-15.5-4-20.7"/>
		<path class="st5" d="M199,347c1.9,2.5,1.3,10.2,1.3,14.7"/>
		<path class="st5" d="M209.7,331.7c2.1,6.4,6.9,12.7,13.3,15.3"/>
		<path class="st5" d="M219,327c3,6.5,2.3,15.3,5.6,21.3c4.9,9.1,6.4,10.8,1.7,21.3"/>
		<path class="st5" d="M213,351c1.5,1.6,2.6,7.2,3.3,9.3c1.1,3.4,1.6,7.1,2.7,10.7"/>
		<path class="st5" d="M214.3,384.3c-2.9,1.1-5.1,4.3-8,1.3"/>
		<path class="st5" d="M259.7,368.3c-0.8-0.1-1.1-1.4-1.3-0.1c5.9,6.6,5.4,12.7,1.2,19.9c3.8-7.2,8.4-9.1,16.1-9.8
			c3.3-0.3,7-1.2,10.5-0.7c3.4,0.5,6.4,2.5,10.1,2"/>
		<path class="st5" d="M236.3,329.7c0.8-6.5,10.9,3.1,13.6,4.7c6.5,3.9,13,6.5,19.7,8.6"/>
		<path class="st5" d="M249.7,340.3c2.3,4.1,5.2,8.4,8,12"/>
		<path class="st5" d="M178.3,375.7c-7.3-4.6-4.9,8.8-4.7,12c0.5,8.2,1.4,7.3,7.3,12"/>
		<path class="st5" d="M172.3,338.3c-1.8,13-16.9,17.9-24.1,27.7c-3.6,4.9-4.9,10.2-10,13c-4.6,2.5-11.9,4.5-17.2,6"/>
		<path class="st5" d="M139,379.7c-0.6,0-1.2,0-1.8,0c4.9-1.6,10.1-1.3,15.1,0.7c5.2,2,9.2,8.3,14.7,10"/>
		<path class="st5" d="M126.3,361c2.6-2.4,7.1-9.6,12.7-8.7"/>
		<path class="st5" d="M142.3,352.3c2-4.6,7.6-6.9,10.7-10.7c2.3-2.9,8.3-10.8,7.3-14.7"/>
		<path class="st5" d="M135.7,331.7c-5.5-0.2-10.4,17.2-12,21.3"/>
		<path class="st5" d="M128.3,322.3c-5.2,5-6,9.8-6,16.7"/>
		<path class="st5" d="M128.3,322.3c2.1-9-6.8-3.5-9.6,0c-2.8,3.5-5.8,10.5-5.7,15.3"/>
		<path class="st5" d="M-3,361.7c-0.8-0.4-0.4-1-1.2-1.2c1.9,2.4,5.3,3.2,7.8,4.4c-4.5-0.9-7.9,4.3-6,8.5c2.5,5.3,8.5,3,8.7-3.1"/>
		<path class="st5" d="M13,372.3c-1.9-4.2,3.7-7.1,7.6-6c4.5,1.3,7.7,8.2,10.1,11.6c6.3,9.1,11.5,16.4,11.6,27.7"/>
		<path class="st5" d="M18.3,379.7c-2.2-6.7-14.6,4.4-10.4,9c2.8,3,6-1.2,9.1-0.2c2.7,0.8,6,6.3,8.7,7.9"/>
		<path class="st5" d="M25,351c10.4-3.2,13.9,15.1,20.1,18.6c1.1-1.6,0.7-3-0.1-4.6"/>
		<path class="st5" d="M52.3,374.3c0.9,6.7,3.3,13,3.9,20c0.4,6.2-1.7,16.6,7.1,18c5.3,0.8,17.2-8,18.4-13c1.5-6.1-9.3-11-2.9-18.5
			c2.9-3.5,8.4-3.4,10.9-7.9c2.7-5-1-8.7-4.7-3.3"/>
		<path class="st5" d="M50.3,427.7c-1.3-12.5,12.4-13.5,20-16.7"/>
		<path class="st5" d="M84.3,396.3c-0.6-0.9,10-12.8,11.3-17.1c1.5-5.1,3-16.8,0.1-20.3"/>
		<path class="st5" d="M56.3,274.3c8.5,1.8,6.7,11.9,5.3,18"/>
		<path class="st5" d="M68.3,297c-1.8,7,8.1,12.8,11.4,18.6c1,1.8,1.2,4.4,2.3,6.3c1.3,2.2,3.9,3.5,5.1,6.1c1.8,3.9,0.5,12.8-4,7"/>
		<path class="st5" d="M87.7,337.7c-0.2-1.2,0.3-1.9-0.5-2.6c0.2,3.9,3.3,7.7,7.2,8.6"/>
		<path class="st5" d="M92.3,365.7c2-3.5,3.4-10.6,2-14"/>
		<path class="st5" d="M74.3,457c4-2.6,3.8-7.6,6.1-11.6c2.2-3.9,6.3-6.5,7.3-11.1"/>
		<path class="st5" d="M93,445.7c1.1,7.1,0.2,11.8-2.7,18.3c-2,4.4-3.8,18.2-11.3,14.3"/>
		<path class="st5" d="M97.7,461.7c3.9,1.8,5.3,6.8,8,10.3c3.4,4.4,8.1,7.5,12.7,9.7"/>
		<path class="st5" d="M103.7,437.7c8.3,11.3,21.6,26.7,37.3,16.7"/>
		<path class="st5" d="M148.3,455.7c5.9-0.7,11.1-6.7,17.3-10"/>
		<path class="st5" d="M182.3,438.3c0.7,0.7-0.1,1.3,1.4,1.4c1.7-2.1,1.8-4.9,0.6-7.4"/>
		<path class="st5" d="M161.7,479c-1.7,4.7-0.9,16.1-8,14.7"/>
		<path class="st5" d="M131,487c6.3,1.6,13.8,2.7,20,4.7"/>
		<path class="st5" d="M158.3,474.3c-2.5,4.2-11.5,5.1-16,6c-7.7,1.4-13.8,0.7-20.7-3.3"/>
		<path class="st5" d="M99,482.3c-3.3,6.1,3.2,15.5,1.9,22.6c-4.4,1.3-6.6-2.6-6.6-6.6"/>
		<path class="st5" d="M114.3,495.7c1.5-1.4,13.2,9.3,16.3,11.3c14.3,9.5-6.4,8.5-8.3,3.3"/>
		<path class="st5" d="M107.7,505.7c2.9,2.6,5.2,6.1,9.3,6"/>
		<path class="st5" d="M143,516.3c4.3-1.5,12.4,3.2,14,8"/>
		<path class="st5" d="M143.7,529c-0.4-0.6-17.4-2.7-21.3-4.1c-3.9-1.5-8.3-2.8-12-4.7c-5.5-2.8-5-6.7-9.3-9.8"/>
		<path class="st5" d="M73,467.7c0.7,1.9,2,3.9,3.3,5.3"/>
		<path class="st5" d="M169,533c-7.9-6.3-9.8-15.6-11.4-25.3c-0.8-4.9-1.2-10.6-0.7-15.6c0.7-6.5,4.7-10.7,6.7-16.4"/>
		<path class="st5" d="M281.7,523.7c0.2-4.5,3.6-8.9,4.9-13.5c1.6-5.5,1.8-10.6,1.8-16.4c0-11.6-1.2-18.9-8.7-28.1"/>
		<path class="st5" d="M291,488.3c-1,0.3-0.8,1.1-2,0.6c-3.1-5.6,14.4-10.6,18.3-14.3c8.2-7.6,10-17.1,16.4-26.3"/>
		<path class="st5" d="M263,441.7c13.3-0.9,21.3,11.9,34.8,12.7c6.6,0.4,11.5-0.3,17.2-3.5c6.5-3.6,7.9-11,14-14.5"/>
		<path class="st5" d="M283,444.3c3-1.8,9.1,1.3,12.7,2c6.7,1.4,9.6,0.4,16-2.7"/>
		<path class="st5" d="M304.3,439.7c14.3,1.7,18-16.7,22.7-26"/>
		<path class="st5" d="M331.7,428.3c3.4,11.1,11.9,9.1,20.7,3.3"/>
		<path class="st5" d="M296.3,510.3c-3.4-7.6,11.3-13.5,16.3-16.7c6.6-4.1,13.8-11.7,16.3-19.3"/>
		<path class="st5" d="M321.7,234.3c-4.6,18.6-17.6,31.1-30.3,44.4c-10,10.4-15.6,29.3-16.9,43.3c-0.4,4.2-0.5,8.6,1.3,12.3
			c1.5,3.1,9.5,10.2,8.7,2.7"/>
		<path class="st5" d="M289.7,349.7c2.9-1,11,7.3,12.5,10.8c2.3,5.2-1.3,12.1,0.9,17c2.3,5.2,10.5,8.4,15.9,7.5
			c6.9-1.3,7.7-6.6,8-12.8c0.6-12.1-0.8-24.1,4.8-35.2c6.3-12.5,18.4-20.3,23.2-34c1-2.7,0.7-5.9,2.1-8.7c1.7-3.3,4.7-5.4,6.4-8.7
			c2.7-5.3,2-13.6,2.8-19.4c-0.9-0.8-3.7-2.3-4.8-2.5c-4.2,3.5-3.8,9.4-6.5,13.3"/>
		<path class="st5" d="M313.7,384.3c7.8,1.2,7.7,15.3,15.8,6.7c2.4-2.6,3.8-6.5,6.1-9.3c3.5-4.2,7.2-7.8,9.9-12.7
			c4-7.3,5.3-15.5,9.4-22.7c1.8-3.2,3.7-8.6,8.8-8c4,0.4,6.8,5.5,4.6,8.7"/>
		<path class="st5" d="M368.3,355c0-0.9,0-1.7-0.1-2.6c-4.9-0.9-7.9,4.2-7.2,8.6"/>
		<path class="st5" d="M323,397c3.5-10.7,20.9,7.1,22,7.3"/>
		<path class="st5" d="M374.3,364.3c-4.2,6.4-9.1,11.3-15.3,15.8c-4.9,3.6-15.4,9.8-14.7,16.9"/>
		<path class="st5" d="M173.7,541c-0.9,0.6,3.6,5.3,6,6.7"/>
		<path class="st5" d="M144.3,530.3c-3.1-1.1-5.7,5.3-5.3,8.7"/>
		<path class="st5" d="M197.7,471c-3.8-5.7-1.5-19,3.3-24"/>
		<path class="st5" d="M251,472.3c1-6.4,4.4-19.9-2.7-24"/>
		<path class="st5" d="M246.3,543.7c2.8,4.2,1.8,10.5-2.2,13.6"/>
		<path class="st5" d="M205.4,546c-1.9,1.4-2.5,4.2-1.6,6.3"/>
	</g>
</g>
<g id="Layer_62">
</g>
</svg>
